<svg width="378" height="479" viewBox="0 0 378 479" fill="none" xmlns="http://www.w3.org/2000/svg">
<g clip-path="url(#clip0)">
<path d="M118.855 344.858C118.476 349.982 118.855 355.338 116.245 359.999C114.194 365.654 109.621 369.777 106.957 375.121C102.582 379.962 103.921 386.834 103.07 392.722C103.231 396.408 105.587 395.446 104.189 392.346C103.092 386.389 101.827 379.186 95.7834 376.244C91.9174 374.053 87.5933 372.122 85.4277 367.957C81.4525 362.223 80.4023 355.208 80.1815 348.402C80.3099 345.05 78.8029 338.714 81.6492 337.318C84.5631 341.153 89.7129 340.918 93.9183 342.049C98.8599 342.772 103.82 342.226 108.755 342.119C112.016 342.889 116.829 341.354 118.997 343.837L118.855 344.859L118.855 344.858Z" fill="#FFCC00"/>
<path opacity="0.5123" d="M116.533 342.391C116.648 348.028 118.128 354.178 115.244 359.377C113.762 362.036 110.892 363.398 109.303 365.985C105.681 370.986 104.348 377.309 104.088 383.425C102.236 387.904 105.988 392.085 105.78 396.55C105.744 397.73 104.723 399.259 104.764 397.187C104.383 392.399 107.323 387.379 104.933 382.803C100.609 378.394 93.2352 381.157 89.0143 376.516C84.2401 372.325 79.4235 367.044 78.9538 360.26C78.297 355.02 80.4077 349.988 82.9541 345.574C84.2734 343.394 85.3504 341.034 86.7508 338.926C90.4815 334.857 96.3769 334.562 101.447 334.977C103.95 334.891 106.154 336.037 108.097 337.574C110.741 339.454 113.359 341.555 116.533 342.39L116.533 342.391Z" fill="#FFFF00"/>
<path opacity="0.5123" d="M114.965 341.935C114.856 345.83 115.859 350.153 113.5 353.603C112.395 355.642 111.098 357.598 109.481 359.28C108.014 360.953 106.262 362.375 104.883 364.116C101.95 368.664 102.153 374.574 104.012 379.488C104.108 380.138 104.685 381.469 104.361 379.936C103.872 378.059 103.641 375.811 102.079 374.486C98.3489 371.303 92.7315 371.195 89.5204 367.281C86.6828 365.117 86.1214 361.189 86.773 357.884C87.2564 355.111 88.4842 352.553 89.2217 349.848C89.9464 347.582 91.2575 344.914 93.9225 344.655C96.4135 344.614 98.8805 345.209 101.375 345.274C103.631 345.248 106.101 345.811 108.225 344.966C110.004 343.903 111.081 341.57 113.318 341.374C113.912 341.366 114.481 341.606 114.966 341.935L114.965 341.935Z" fill="#FF0000"/>
<path opacity="0.5123" d="M113.558 342.938C113.388 347.215 114.231 351.957 111.704 355.735C109.871 358.497 107.523 360.879 105.213 363.242C102.78 365.51 100.537 368.286 100.179 371.715C99.4194 375.392 99.5112 379.248 100.706 382.823C99.9997 380.635 99.811 378.306 98.8453 376.186C98.2081 374.322 96.7999 373.103 96.1287 371.174C94.7517 368.407 93.5841 364.968 90.4333 363.788C85.2288 361.077 91.3522 355.085 86.4006 351.92C83.9899 350.315 77.3422 347.444 77.2529 344.485C76.9465 341.581 70.6379 342.609 70.7074 339.711C70.9465 337.318 72.9206 334.588 75.6101 335.216C79.0515 335.79 82.4651 336.595 85.8992 337.248C92.7996 338.357 99.6074 340.702 106.678 340.251C109.217 340.364 111.271 342.048 113.557 342.938L113.558 342.938Z" fill="#FF6600"/>
<path d="M99.6535 340.259C100.066 343.152 103.431 343.787 105.189 345.653C107.538 347.167 107.077 350.07 107.116 352.46C107.402 355.957 103.698 357.409 101.746 359.671C99.9117 362.078 100.839 365.586 101.8 368.153C101.95 371.273 103.019 374.967 100.373 377.386C100.645 377.496 102.917 372.648 100.762 371.246C98.4342 369.901 94.7518 371.676 93.54 368.265C91.7809 365.781 91.5244 362.675 90.6392 359.832C89.936 355.914 89.7738 351.793 90.4963 347.88C91.5443 345.231 93.0208 342.693 94.8221 340.492C96.5771 338.556 98.9518 343.286 100.366 341.556C100.15 341.112 99.8555 340.713 99.6536 340.26L99.6535 340.259Z" fill="#FF0000"/>
<path d="M249.32 341.616C249.826 346.729 249.58 352.092 252.306 356.687C254.497 362.289 259.171 366.297 261.968 371.574C266.462 376.303 265.294 383.207 266.292 389.071C266.222 392.76 263.843 391.857 265.164 388.724C266.112 382.741 267.197 375.509 273.166 372.418C276.976 370.131 281.25 368.092 283.312 363.875C287.143 358.045 288.018 351.006 288.069 344.196C287.857 340.848 289.206 334.476 286.326 333.152C283.508 337.058 278.354 336.952 274.179 338.187C269.257 339.033 264.284 338.61 259.348 338.626C256.107 339.477 251.258 338.063 249.152 340.599L249.32 341.617L249.32 341.616Z" fill="#FFCC00"/>
<path opacity="0.5123" d="M251.58 339.091C251.605 344.73 250.279 350.915 253.292 356.041C254.839 358.662 257.742 359.952 259.395 362.499C263.14 367.407 264.63 373.695 265.043 379.803C267.005 384.235 263.359 388.507 263.678 392.966C263.743 394.144 264.802 395.648 264.709 393.578C264.971 388.782 261.907 383.837 264.182 379.202C268.395 374.687 275.835 377.265 279.939 372.52C284.608 368.213 289.291 362.813 289.592 356.02C290.118 350.765 287.883 345.787 285.227 341.438C283.854 339.291 282.718 336.959 281.266 334.887C277.435 330.911 271.534 330.764 266.476 331.305C263.972 331.281 261.797 332.482 259.893 334.066C257.296 336.011 254.732 338.177 251.58 339.091L251.58 339.091Z" fill="#FFFF00"/>
<path opacity="0.5123" d="M253.135 338.597C253.342 342.488 252.446 346.835 254.89 350.225C256.047 352.236 257.392 354.159 259.05 355.8C260.558 357.436 262.345 358.814 263.767 360.52C266.812 364.994 266.756 370.906 265.02 375.865C264.941 376.518 264.397 377.862 264.682 376.322C265.125 374.434 265.3 372.18 266.828 370.817C270.478 367.542 276.091 367.294 279.203 363.301C281.986 361.068 282.45 357.127 281.716 353.839C281.164 351.079 279.872 348.552 279.068 345.866C278.287 343.619 276.91 340.985 274.239 340.792C271.748 340.813 269.297 341.469 266.805 341.596C264.548 341.627 262.094 342.251 259.949 341.459C258.144 340.44 257.009 338.135 254.768 337.996C254.174 338.002 253.611 338.256 253.135 338.597L253.135 338.597Z" fill="#FF0000"/>
<path opacity="0.5123" d="M254.568 339.564C254.844 343.836 254.119 348.597 256.739 352.311C258.641 355.027 261.047 357.349 263.415 359.654C265.904 361.861 268.216 364.58 268.659 367.999C269.51 371.656 269.514 375.514 268.408 379.117C269.06 376.913 269.191 374.579 270.103 372.436C270.694 370.557 272.071 369.302 272.694 367.357C274.002 364.557 275.083 361.09 278.204 359.832C283.339 356.992 277.069 351.155 281.94 347.868C284.31 346.203 290.884 343.167 290.899 340.207C291.133 337.296 297.466 338.167 297.324 335.271C297.025 332.885 294.984 330.206 292.311 330.9C288.885 331.559 285.492 332.45 282.076 333.188C275.205 334.468 268.458 336.982 261.379 336.707C258.843 336.883 256.831 338.618 254.568 339.564L254.568 339.564Z" fill="#FF6600"/>
<path d="M268.401 336.541C268.06 339.443 264.712 340.161 263.002 342.071C260.691 343.642 261.224 346.533 261.244 348.923C261.045 352.427 264.784 353.786 266.792 355.999C268.686 358.359 267.846 361.888 266.949 364.479C266.877 367.602 265.9 371.321 268.606 373.673C268.337 373.79 265.945 369.001 268.064 367.545C270.358 366.142 274.083 367.825 275.21 364.385C276.906 361.858 277.085 358.746 277.899 355.882C278.505 351.948 278.564 347.824 277.745 343.931C276.631 341.309 275.092 338.808 273.236 336.653C271.434 334.762 269.178 339.549 267.721 337.855C267.925 337.405 268.21 336.999 268.4 336.541L268.401 336.541Z" fill="#FF0000"/>
<path d="M123.242 332.275C123.729 355.611 121.918 379.966 129.138 401.313C134.561 427.15 147.72 446.148 155.017 470.604C167.494 492.854 162.622 524.061 164.425 550.899C163.478 567.666 156.55 563.17 161.126 549.132C165.159 522.076 169.851 489.362 188.301 476.28C200.142 466.505 213.321 457.933 220.325 439.089C232.94 413.198 236.967 381.325 238.486 350.36C238.524 335.098 243.831 306.34 235.493 299.844C226.292 317.147 210.916 315.82 198.193 320.751C183.319 323.793 168.549 321.057 153.799 320.317C143.947 323.658 129.743 316.43 122.944 327.622L123.241 332.277L123.242 332.275Z" fill="#FFCC00"/>
<path opacity="0.5123" d="M130.5 321.161C129.443 346.81 124.24 374.724 132.213 398.532C136.311 410.708 144.723 417.054 149.152 428.908C159.356 451.848 162.544 480.692 162.553 508.54C167.527 529.018 155.776 547.854 155.834 568.184C155.794 573.555 158.655 580.568 158.793 571.136C160.538 549.366 152.376 526.371 160.103 505.665C173.594 485.82 195.304 498.766 208.516 477.858C223.327 459.03 238.402 435.238 240.663 404.389C243.288 380.575 237.609 357.569 230.548 337.352C226.876 327.362 223.952 316.568 220.028 306.904C209.382 288.194 191.783 286.557 176.563 288.189C169.086 287.67 162.347 292.773 156.341 299.669C148.195 308.09 140.1 317.519 130.499 321.161L130.5 321.161Z" fill="#FFFF00"/>
<path opacity="0.5123" d="M135.246 319.167C135.081 336.901 131.535 356.523 138.156 372.345C141.207 381.678 144.84 390.646 149.466 398.383C153.641 406.07 158.704 412.631 162.609 420.623C170.808 441.471 169.457 468.355 163.275 490.625C162.907 493.579 161.012 499.606 162.174 492.649C163.875 484.131 164.851 473.91 169.69 467.96C181.249 453.662 198.067 453.454 208.167 435.804C216.929 426.102 219.103 408.255 217.571 393.181C216.475 380.537 213.124 368.829 211.26 356.482C209.377 346.133 205.792 333.926 197.852 332.611C190.405 332.299 182.95 334.88 175.48 335.05C168.734 334.82 161.275 337.254 155.027 333.303C149.84 328.374 146.91 317.702 140.245 316.7C138.468 316.633 136.735 317.696 135.244 319.167L135.246 319.167Z" fill="#FF0000"/>
<path opacity="0.5123" d="M139.33 323.802C139.298 343.278 136.177 364.813 143.26 382.136C148.397 394.8 155.119 405.757 161.732 416.628C168.726 427.076 175.085 439.821 175.724 455.445C177.531 472.217 176.77 489.762 172.745 505.971C175.134 496.051 175.992 485.458 179.149 475.862C181.29 467.41 185.656 461.931 187.907 453.186C192.376 440.663 196.302 425.071 205.877 419.864C221.788 407.787 204.226 380.211 219.437 366.057C226.851 358.872 247.1 346.144 247.74 332.685C249.023 319.48 267.766 324.48 267.924 311.287C267.51 300.385 261.949 287.863 253.824 290.582C243.456 293.02 233.143 296.513 222.788 299.309C202.005 304.008 181.344 314.336 160.251 311.925C152.641 312.309 146.282 319.868 139.331 323.803L139.33 323.802Z" fill="#FF6600"/>
<path d="M181.262 312.318C179.663 325.463 169.516 328.179 164.024 336.585C156.805 343.353 157.818 356.589 157.399 367.465C156.101 383.366 166.999 390.162 172.554 400.556C177.738 411.603 174.521 427.517 171.322 439.151C170.48 453.343 166.817 470.102 174.428 481.244C173.601 481.731 167.415 459.554 174.037 453.283C181.171 447.277 191.963 455.543 196.018 440.081C201.594 428.864 202.753 414.74 205.76 401.848C208.358 384.052 209.363 365.306 207.695 347.462C204.893 335.355 200.797 323.728 195.686 313.621C190.68 304.723 182.98 326.129 178.968 318.183C179.668 316.171 180.6 314.371 181.262 312.318L181.262 312.318Z" fill="#FF0000"/>
<path d="M208.086 378.768C206.161 384.424 205.058 390.473 200.654 395.219C196.618 401.173 190.072 404.97 185.408 410.469C178.886 415.102 178.468 423.015 175.769 429.442C174.893 433.588 177.93 432.93 177.188 429.22C177.625 422.371 178.226 414.102 172 409.748C168.107 406.617 163.602 403.694 162.27 398.659C159.273 391.552 160.07 383.53 161.779 375.888C162.899 372.166 162.965 364.823 166.701 363.767C169.005 368.565 175.103 369.214 179.7 371.22C185.277 372.902 191.243 373.169 197.053 373.922C200.648 375.359 206.727 374.495 208.548 377.652L208.086 378.768L208.086 378.768Z" fill="#FFCC00"/>
<path opacity="0.5123" d="M206.08 375.6C204.587 381.918 204.542 389.049 199.661 394.347C197.158 397.055 193.404 398.07 190.795 400.678C185.109 405.624 181.721 412.451 179.648 419.237C176.186 423.913 179.37 429.246 177.837 434.197C177.453 435.509 175.816 437.037 176.463 434.729C177.4 429.314 182.294 424.226 180.818 418.691C177.029 413.002 167.597 414.785 163.996 408.854C159.617 403.329 155.504 396.578 156.914 388.917C157.66 382.948 161.586 377.7 165.843 373.22C168.018 371.018 169.961 368.572 172.21 366.465C177.755 362.579 184.743 363.292 190.559 364.653C193.515 364.999 195.765 366.669 197.595 368.729C200.148 371.296 202.605 374.106 206.081 375.6L206.08 375.6Z" fill="#FFFF00"/>
<path opacity="0.5123" d="M204.377 374.814C203.123 379.146 203.048 384.152 199.289 387.589C197.405 389.671 195.321 391.627 192.941 393.22C190.741 394.829 188.278 396.108 186.161 397.809C181.412 402.371 179.941 409.008 180.698 414.826C180.622 415.569 180.913 417.158 180.977 415.389C180.947 413.205 181.325 410.653 179.88 408.897C176.432 404.682 169.886 403.568 167.258 398.628C164.56 395.709 165.038 391.223 166.756 387.646C168.124 384.634 170.301 381.993 171.947 379.102C173.45 376.699 175.756 373.95 178.952 374.132C181.88 374.527 184.597 375.627 187.499 376.141C190.148 376.511 192.877 377.576 195.609 377.008C197.999 376.135 199.935 373.72 202.61 373.897C203.308 373.993 203.905 374.362 204.378 374.814L204.377 374.814Z" fill="#FF0000"/>
<path opacity="0.5123" d="M202.439 375.685C201.004 380.434 200.621 385.879 196.57 389.653C193.624 392.414 190.188 394.659 186.8 396.89C183.295 398.994 179.866 401.698 178.456 405.465C176.504 409.438 175.497 413.762 175.863 417.967C175.668 415.398 176.12 412.763 175.602 410.224C175.395 408.029 174.098 406.418 173.87 404.144C173.058 400.81 172.684 396.762 169.336 394.888C164.026 390.939 172.927 385.329 168.044 380.918C165.686 378.698 158.732 374.316 159.482 370.996C159.963 367.697 152.279 367.73 153.198 364.505C154.17 361.874 157.27 359.174 160.238 360.351C164.101 361.6 167.866 363.104 171.698 364.44C179.457 366.899 186.751 370.722 195.159 371.468C198.1 372.043 200.019 374.287 202.439 375.686L202.439 375.685Z" fill="#FF6600"/>
<path d="M186.933 370.236C186.58 373.54 190.336 374.844 191.855 377.239C194.168 379.345 192.789 382.507 192.144 385.184C191.468 389.141 186.712 390.108 183.772 392.289C180.928 394.654 181.001 398.735 181.384 401.773C180.658 405.285 180.841 409.601 177.044 411.834C177.33 412.005 181.392 406.992 179.274 405.045C176.938 403.13 172.113 404.463 171.68 400.438C170.338 397.352 170.935 393.837 170.721 390.505C171.03 386.004 172.031 381.372 174.008 377.129C176.001 374.355 178.463 371.781 181.208 369.641C183.823 367.789 185.236 373.493 187.392 371.81C187.268 371.275 187.038 370.778 186.933 370.236L186.933 370.236Z" fill="#FF0000"/>
<path fill-rule="evenodd" clip-rule="evenodd" d="M168.336 11.8117C165.934 13.0733 163.561 14.7311 161.248 16.7941C160.322 17.6193 159.399 18.5108 158.493 19.4648C156.68 21.3729 154.904 23.5424 153.186 25.9678C151.898 27.7869 150.652 29.7469 149.428 31.8584C145.351 38.8965 141.65 47.5647 138.539 57.879C138.127 59.127 137.723 60.4048 137.322 61.6985C137.008 62.7068 136.705 63.7258 136.398 64.7606C136.1 65.7659 135.799 66.7776 135.506 67.807L135.347 68.3595C135.235 68.7556 135.131 69.1675 135.02 69.567C135.005 69.6239 134.981 69.6758 134.965 69.7328L134.702 70.7115C134.509 71.4158 134.31 72.12 134.12 72.8345L133.825 73.9474L133.793 74.042C133.638 74.6358 133.501 75.2414 133.347 75.8417C133.193 76.442 133.023 77.0434 132.869 77.657C132.698 78.3366 132.543 79.0298 132.374 79.7171L132.031 81.1299L132.015 81.1773L132 81.2248L131.649 82.7008L131.481 83.3954C131.459 83.49 131.447 83.5848 131.425 83.6795L130.922 85.8423C130.817 86.3054 130.708 86.7576 130.603 87.2236C130.565 87.392 130.537 87.5601 130.499 87.7288C130.441 87.987 130.389 88.2434 130.332 88.5024C130.323 88.5391 130.316 88.5763 130.308 88.6129C130.069 89.6876 129.823 90.7598 129.589 91.8492L129.509 92.2439C128.971 94.7656 128.44 97.3386 127.927 99.9325L127.863 100.28C127.836 100.418 127.803 100.559 127.775 100.698C127.316 103.039 126.87 105.403 126.432 107.795C126.093 109.64 125.765 111.504 125.439 113.376C125.314 114.096 125.202 114.823 125.079 115.547L124.982 116.108C124.584 118.454 124.192 120.817 123.813 123.197C123.477 125.305 123.155 127.431 122.834 129.56L122.489 131.802C122.46 131.995 122.429 132.185 122.401 132.379C121.995 135.141 121.593 137.912 121.212 140.7C120.809 143.65 120.421 146.614 120.046 149.582C119.925 150.539 119.817 151.498 119.699 152.456C119.43 154.638 119.164 156.816 118.91 159.001C118.853 159.488 118.804 159.975 118.748 160.462C118.453 163.039 118.152 165.617 117.877 168.192C117.788 169.025 117.705 169.854 117.619 170.687C117.421 172.585 117.238 174.48 117.052 176.372C116.894 177.98 116.733 179.578 116.583 181.18L116.267 184.591C116.11 186.325 115.951 188.049 115.804 189.771C115.654 191.532 115.521 193.282 115.381 195.03C115.32 195.784 115.26 196.537 115.202 197.288C115.013 199.701 114.84 202.095 114.671 204.474C114.632 205.022 114.579 205.57 114.541 206.116C114.385 208.36 114.245 210.574 114.107 212.781L113.983 214.794C113.836 217.215 113.697 219.613 113.571 221.98L113.505 223.157L113.472 223.883C113.344 226.392 113.227 228.877 113.123 231.314C113.013 233.865 112.919 236.37 112.836 238.832C112.791 240.164 112.754 241.453 112.716 242.757C112.674 244.239 112.628 245.712 112.595 247.156C112.591 247.351 112.59 247.538 112.586 247.732C112.561 248.908 112.549 250.042 112.531 251.191C112.317 251.115 112.096 251.058 111.852 251.016C111.472 250.95 111.061 250.93 110.612 250.942L110.596 250.95C110.376 250.955 110.145 250.971 109.909 250.995C109.83 251.003 109.745 251.008 109.664 251.018C109.606 251.026 109.541 251.041 109.482 251.05C109.213 251.088 108.931 251.13 108.645 251.19L108.376 251.244C107.84 251.366 107.285 251.533 106.701 251.722C106.41 251.816 106.109 251.918 105.808 252.028C104.8 252.397 103.735 252.852 102.637 253.387C99.5216 254.907 96.1165 257.05 92.8928 259.611C91.6843 260.57 90.5154 261.597 89.379 262.659C89.2804 262.751 89.176 262.834 89.0782 262.927C88.3343 263.632 87.6185 264.36 86.9249 265.101L86.3865 265.684C86.0919 266.01 85.7979 266.339 85.5154 266.669L85.4679 266.733C84.8266 267.486 84.2153 268.242 83.646 269.018C83.4582 269.275 83.286 269.541 83.1071 269.799C82.9794 269.983 82.8575 270.174 82.7346 270.359C82.6222 270.528 82.5021 270.694 82.3938 270.864C82.1322 271.274 81.8773 271.672 81.6406 272.086C81.3077 272.744 81.0066 273.399 80.6882 274.058C80.2361 274.993 79.7859 275.928 79.3626 276.866C79.1426 277.354 78.9238 277.845 78.7115 278.334C78.6616 278.449 78.618 278.566 78.5685 278.681C78.1557 279.641 77.7604 280.595 77.377 281.561C77.2937 281.771 77.2205 281.982 77.1386 282.192C76.7941 283.076 76.4495 283.953 76.1293 284.843L76.1054 284.914C75.7803 285.82 75.4594 286.739 75.1591 287.653C75.0409 288.012 74.9235 288.372 74.8091 288.734C74.5437 289.572 74.2977 290.413 74.0528 291.259L73.7899 292.198C73.5832 292.938 73.3758 293.685 73.1844 294.432C73.1337 294.629 73.0746 294.826 73.025 295.024C72.8346 295.785 72.6651 296.552 72.4904 297.321C72.3498 297.939 72.2059 298.559 72.0753 299.184L71.9954 299.578C71.5113 301.936 71.1129 304.343 70.7699 306.794C70.7027 307.275 70.623 307.754 70.5611 308.239C70.5255 308.517 70.4982 308.795 70.4644 309.076C70.4008 309.603 70.3443 310.131 70.2869 310.663C70.1678 311.765 70.0477 312.878 69.9551 314.002L69.8818 314.966C69.8465 315.433 69.8223 315.9 69.7915 316.371C69.7357 317.228 69.6924 318.075 69.6512 318.946C69.5537 320.999 69.4796 323.095 69.4625 325.232L69.4613 325.706C69.4574 326.447 69.4584 327.181 69.4639 327.933L69.4637 328.051L69.4715 328.107C69.4788 328.915 69.4876 329.734 69.5052 330.555C69.5226 331.344 69.543 332.146 69.5706 332.948L69.5782 333.043L69.6229 334.204C69.641 334.66 69.6534 335.119 69.6749 335.578C69.7039 336.199 69.7386 336.814 69.7731 337.442C69.7857 337.674 69.8055 337.897 69.8189 338.129C69.8678 338.995 69.9103 339.855 69.9706 340.736C69.9711 340.742 69.9782 340.746 69.9784 340.752C70.0845 340.999 70.2049 341.247 70.3242 341.487L70.3476 341.535C70.4467 341.733 70.5542 341.935 70.6621 342.128C70.7699 342.321 70.8896 342.514 71.0082 342.705C71.0201 342.725 71.0273 342.749 71.0397 342.768C71.0774 342.829 71.1111 342.89 71.1497 342.95C71.1727 342.985 71.1977 343.018 71.2207 343.053C71.2239 343.058 71.2251 343.064 71.2285 343.069C71.2385 343.084 71.2576 343.094 71.2682 343.108C71.3074 343.167 71.3383 343.232 71.3783 343.29C71.446 343.388 71.5132 343.486 71.5826 343.583C71.8013 343.888 72.0192 344.179 72.2597 344.469L72.3072 344.525C72.3108 344.529 72.3117 344.536 72.315 344.54C72.4327 344.681 72.5546 344.815 72.6773 344.952L72.8505 345.142C72.8757 345.17 72.9036 345.194 72.9293 345.221C73.1067 345.411 73.294 345.592 73.4809 345.775C73.4845 345.779 73.4847 345.787 73.4886 345.791C73.7023 346 73.9013 346.201 74.1269 346.401C74.3525 346.601 74.5913 346.788 74.8284 346.979C75.0475 347.155 75.2697 347.326 75.4985 347.494L75.6246 347.589C75.8347 347.741 76.0457 347.895 76.2633 348.041C76.3092 348.072 76.3591 348.097 76.4053 348.128L76.4604 348.16C76.6539 348.287 76.8451 348.418 77.044 348.54C77.0664 348.554 77.0845 348.574 77.107 348.588C77.3789 348.754 77.654 348.906 77.9351 349.063C78.3221 349.281 78.714 349.498 79.1183 349.698C79.1977 349.737 79.2748 349.778 79.355 349.817L79.6389 349.952L79.6626 349.96L80.0728 350.15C80.8132 350.483 81.5908 350.777 82.3768 351.056L82.4242 351.072C82.7468 351.186 83.0496 351.301 83.379 351.406L83.6315 351.478C83.9426 351.574 84.2621 351.668 84.5786 351.756C84.8061 351.821 85.0352 351.887 85.2652 351.948L85.6283 352.043L86.3229 352.211C86.6889 352.294 87.0567 352.377 87.428 352.45C87.9473 352.553 88.4707 352.631 88.999 352.715L89.0858 352.731C89.352 352.772 89.623 352.807 89.8911 352.843L90.7991 352.964L90.8622 352.972C92.2083 353.125 93.5725 353.221 94.9446 353.25C95.6466 353.265 96.3497 353.264 97.0533 353.247C97.0798 353.246 97.1059 353.248 97.1323 353.247L97.1481 353.24C97.4825 353.231 97.8172 353.211 98.1513 353.195C98.4719 353.179 98.7948 353.171 99.1149 353.149L99.3282 353.142C99.5291 353.127 99.7279 353.098 99.9285 353.08L100.173 353.057C100.35 353.041 100.527 353.029 100.703 353.011L100.869 352.988L101.185 352.949C101.292 352.937 101.401 352.939 101.508 352.926L101.524 352.918C101.74 352.892 101.957 352.862 102.172 352.833C102.615 352.772 103.053 352.705 103.491 352.631L103.815 352.568C103.847 352.563 103.879 352.566 103.91 352.561C104.441 352.466 104.959 352.347 105.483 352.233C105.709 352.183 105.937 352.145 106.162 352.092L106.391 352.037C106.91 351.912 107.424 351.79 107.932 351.646C108.18 351.576 108.422 351.494 108.667 351.419L108.873 351.356C109.209 351.251 109.546 351.148 109.877 351.035C110.866 350.695 111.834 350.314 112.762 349.896L113.078 349.739L113.213 349.692L113.671 349.464C113.972 349.317 114.272 349.156 114.565 349L115 348.764C115.433 348.524 115.852 348.277 116.265 348.017C116.541 347.843 116.821 347.673 117.088 347.49C117.29 347.352 117.485 347.2 117.681 347.057L117.942 346.869L117.982 346.829L118.029 346.805L118.623 346.333L118.987 346.034C119.103 345.935 119.213 345.828 119.327 345.727L119.343 345.719C119.573 345.514 119.796 345.302 120.016 345.089L120.19 344.923C120.355 344.758 120.514 344.597 120.673 344.427L120.752 344.348C120.934 344.15 121.11 343.953 121.282 343.749C121.478 343.517 121.67 343.272 121.853 343.032L121.995 342.843L122.035 342.764C122.051 342.742 122.067 342.722 122.083 342.701L122.201 342.543L122.392 342.291C122.73 341.794 123.038 341.275 123.319 340.745C123.321 340.741 123.333 340.741 123.335 340.737C123.619 340.202 123.867 339.65 124.089 339.08C122.976 334.346 121.997 330.226 121.118 326.398C121.047 326.086 120.977 325.804 120.907 325.497L120.813 325.07L120.29 322.747C120.486 323.079 120.692 323.403 120.896 323.728C120.933 323.788 120.968 323.85 121.006 323.91C121.327 324.415 121.664 324.918 122.005 325.405C122.054 325.473 122.099 325.542 122.147 325.61C122.482 326.082 122.818 326.54 123.171 326.995C123.359 327.237 123.552 327.477 123.745 327.715C124.012 328.043 124.288 328.369 124.564 328.688C124.609 328.739 124.654 328.788 124.698 328.838C125.123 329.325 125.537 329.805 125.982 330.271C126.004 330.294 126.031 330.312 126.053 330.334C126.93 331.247 127.845 332.123 128.795 332.955C128.911 333.056 129.025 333.156 129.142 333.256C129.612 333.659 130.106 334.044 130.592 334.428C130.628 334.456 130.66 334.488 130.695 334.515C135.173 338.036 140.324 340.79 145.823 342.891C145.908 342.924 145.998 342.946 146.083 342.979L146.083 343.097L146.032 344.424C146.026 344.63 146.029 344.832 146.023 345.04C146.001 345.831 145.98 346.627 145.97 347.433C145.959 348.263 145.962 349.115 145.964 349.96C145.965 350.285 145.975 350.612 145.977 350.939C145.984 351.788 145.992 352.641 146.011 353.506C146.013 353.611 146.007 353.717 146.01 353.822C146.019 354.216 146.035 354.609 146.047 355.007C146.047 355.054 146.037 355.102 146.038 355.149C146.056 355.719 146.074 356.277 146.098 356.855C146.098 356.861 146.105 356.865 146.105 356.871C146.112 357.018 146.122 357.165 146.128 357.313C146.127 357.321 146.12 357.329 146.12 357.337L146.12 357.495C146.153 358.277 146.205 359.061 146.248 359.856L146.256 360.149C146.256 360.154 146.263 360.159 146.263 360.164C146.306 360.911 146.357 361.68 146.408 362.439C146.408 362.445 146.416 362.45 146.416 362.455C146.471 363.265 146.526 364.087 146.592 364.912C146.604 365.069 146.617 365.228 146.63 365.386C146.673 365.918 146.705 366.443 146.752 366.981L146.83 367.771C146.83 367.777 146.837 367.781 146.837 367.787C146.92 368.692 146.996 369.598 147.092 370.52C147.505 371.402 147.987 372.249 148.515 373.067C148.518 373.072 148.519 373.078 148.523 373.083C148.783 373.488 149.066 373.893 149.357 374.285C149.943 375.074 150.583 375.824 151.271 376.548C151.33 376.611 151.384 376.676 151.444 376.738C151.694 376.996 151.954 377.249 152.216 377.498C152.257 377.537 152.294 377.579 152.334 377.617C152.657 377.92 152.988 378.213 153.327 378.504C153.445 378.605 153.57 378.698 153.69 378.797C153.739 378.837 153.783 378.884 153.832 378.924C154.084 379.13 154.344 379.326 154.604 379.526C154.644 379.556 154.675 379.598 154.715 379.629C155.268 380.048 155.853 380.452 156.441 380.841C156.711 381.018 156.977 381.193 157.254 381.364C157.258 381.367 157.257 381.377 157.261 381.38C158.162 381.938 159.1 382.452 160.069 382.943C160.554 383.188 161.044 383.42 161.544 383.649C162.545 384.106 163.582 384.523 164.637 384.912C166.22 385.496 167.848 386.016 169.522 386.448L169.538 386.44C170.092 386.583 170.656 386.722 171.219 386.847L171.235 386.839C171.464 386.89 171.692 386.943 171.922 386.991L171.946 386.999C172.258 387.063 172.57 387.124 172.885 387.183C172.938 387.193 172.99 387.213 173.043 387.223L173.777 387.351C174.653 387.503 175.534 387.639 176.422 387.752C177.594 387.901 178.782 388.02 179.967 388.1C184.704 388.418 189.5 388.179 194.058 387.367C195.928 387.034 197.758 386.596 199.526 386.069C202.428 385.205 205.172 384.09 207.653 382.7C208.645 382.145 209.604 381.548 210.508 380.907C214.578 378.021 217.702 374.267 219.333 369.618C219.433 368.495 219.508 367.378 219.586 366.278C219.64 365.519 219.682 364.767 219.726 364.02C219.769 363.272 219.808 362.528 219.841 361.793L219.917 360L219.934 359.597C219.996 357.695 220.029 355.826 220.026 353.99L220.02 353.185C220.015 352.466 220 351.762 219.985 351.052L219.956 350.12C219.947 349.765 219.947 349.4 219.935 349.046C219.875 347.246 219.785 345.482 219.663 343.738C229.678 340.32 238.482 334.66 244.111 325.316C243.783 326.922 243.435 328.541 243.072 330.289L241.546 337.614C241.664 337.896 241.79 338.18 241.924 338.452C242.388 339.402 242.954 340.292 243.591 341.134C243.642 341.2 243.682 341.274 243.733 341.339C243.779 341.397 243.829 341.448 243.875 341.505C243.921 341.563 243.952 341.613 243.994 341.663C244.147 341.851 244.304 342.035 244.466 342.217C244.872 342.674 245.295 343.11 245.75 343.531L245.774 343.539C245.998 343.747 246.216 343.95 246.452 344.149C246.694 344.354 246.947 344.547 247.201 344.743C247.45 344.936 247.697 345.129 247.957 345.314C248.218 345.498 248.483 345.669 248.754 345.845C248.992 346 249.225 346.15 249.471 346.296C250.622 346.989 251.855 347.595 253.147 348.137C253.151 348.139 253.151 348.151 253.155 348.153C254.403 348.677 255.698 349.129 257.045 349.513L257.061 349.505C257.395 349.6 257.733 349.705 258.071 349.792L258.087 349.784C258.426 349.87 258.778 349.961 259.121 350.039C260.164 350.276 261.22 350.473 262.295 350.631C264.444 350.947 266.644 351.102 268.841 351.105C269.573 351.106 270.299 351.097 271.029 351.063C272.488 350.995 273.932 350.853 275.357 350.647L275.373 350.639C277.862 350.278 280.279 349.715 282.533 348.934C283.178 348.711 283.821 348.462 284.438 348.204C285.672 347.688 286.851 347.112 287.948 346.459C288.497 346.133 289.014 345.781 289.523 345.42C290.54 344.7 291.475 343.907 292.308 343.05C292.725 342.621 293.115 342.181 293.48 341.718C294.392 340.562 295.14 339.308 295.685 337.94C295.724 337.027 295.765 336.121 295.794 335.224L295.811 334.624C295.83 333.991 295.833 333.376 295.847 332.752L295.882 331.394C295.888 331.001 295.889 330.614 295.893 330.225C295.899 329.548 295.898 328.878 295.897 328.211C295.897 328.051 295.899 327.896 295.898 327.737C295.896 326.915 295.878 326.097 295.865 325.289C295.864 325.229 295.874 325.167 295.873 325.107L295.857 325.115C295.477 303.362 291.279 286.289 282.303 269.594C275.623 258.57 259.574 248.922 252.538 249.186C250.922 203.747 242.732 141.765 230.926 91.04C230.583 89.5632 230.244 88.0795 229.894 86.6227C229.713 85.8656 229.53 85.1221 229.347 84.3706C229.176 83.6717 229.011 82.9703 228.839 82.2765C228.62 81.3943 228.402 80.5188 228.181 79.645C228.039 79.0829 227.894 78.544 227.751 77.9855C227.241 75.9902 226.738 74.0292 226.217 72.0823C225.997 71.2599 225.774 70.4457 225.552 69.6324L225.207 68.3838C224.947 67.4417 224.687 66.5073 224.424 65.5783L224.189 64.7484C223.506 62.3505 222.82 59.9948 222.121 57.6909C221.838 56.699 221.542 55.7378 221.243 54.7746C220.646 52.8482 220.019 50.9735 219.361 49.1628C218.701 47.3462 218.013 45.5971 217.297 43.898C216.94 43.0511 216.582 42.2173 216.213 41.3998C215.101 38.9413 213.932 36.6315 212.715 34.4414C212.31 33.7131 211.911 33.0045 211.496 32.3062C210.253 30.2165 208.958 28.2555 207.632 26.437L207.624 26.4211C206.738 25.2063 205.84 24.0637 204.924 22.9713C197.131 13.6838 188.31 8.84788 180.001 8.81475C176.09 8.79918 172.179 9.79337 168.337 11.8118L168.336 11.8117Z" fill="#1A1A1A" stroke="#1A1A1A" stroke-width="5.6511"/>
<path fill-rule="evenodd" clip-rule="evenodd" d="M180.005 8.80975C164.364 8.74759 148.505 24.8704 138.548 57.8757C115.088 129.009 107.625 276.1 115.4 298.677C125.827 329.405 157.159 344.795 186.581 343.972C187.472 343.947 188.375 343.906 189.264 343.851C196.373 343.408 203.377 341.993 209.962 339.584C210.785 339.283 211.596 338.967 212.405 338.635C229.408 331.659 239.591 319.004 250.538 297.566C258.634 255.401 244.499 131.419 222.118 57.6964C213.07 25.9558 195.645 8.87679 180.003 8.81466L180.005 8.80975Z" fill="#3771C8"/>
<path fill-rule="evenodd" clip-rule="evenodd" d="M251.692 287.443C232.124 303.645 206.435 313.441 181.569 313.751C156.739 314.06 133.42 305.187 113.475 289.52C113.699 292.725 113.931 295.944 114.187 299.207C114.702 340.524 155.892 349.649 185.751 348.817C186.656 348.792 187.572 348.75 188.474 348.695C217.014 347.589 251.114 340.393 250.588 297.792C250.794 294.272 251.551 290.559 251.693 287.441L251.692 287.443Z" fill="#550000"/>
<path fill-rule="evenodd" clip-rule="evenodd" d="M180.004 8.80723C164.363 8.74507 148.503 24.8679 138.547 57.8732C135.247 67.8765 132.26 79.3906 129.592 91.8407C142.855 103.987 160.917 111.372 180.749 111.125C200.336 110.881 218.022 103.243 230.938 91.038C228.181 79.1924 225.23 67.9538 222.116 57.6979C213.068 25.9573 195.646 8.86951 180.005 8.80834L180.004 8.80723Z" fill="#808080"/>
<path opacity="0.36885" fill-rule="evenodd" clip-rule="evenodd" d="M180.004 8.80724C164.363 8.74508 148.503 24.8679 138.547 57.8732C117.198 122.603 109.093 250.22 113.669 289.683C113.603 289.631 113.539 289.579 113.473 289.527C113.697 292.732 113.92 295.951 114.177 299.214C114.538 328.23 134.975 341.345 157.45 346.308C148.668 310.025 145.638 268.292 142.569 216.386C140.052 119.538 151.294 32.8278 180.003 8.80889L180.004 8.80724Z" fill="#1C2224"/>
<path fill-rule="evenodd" clip-rule="evenodd" d="M181.827 265.858C174.206 266.217 166.536 272.073 161.632 283.63C149.715 309.342 143.161 332.291 147.103 370.51C153.752 384.705 175.827 390.602 194.061 387.357C195.931 387.024 197.769 386.596 199.537 386.07C208.822 383.306 216.425 377.875 219.325 369.611C219.424 368.488 219.505 367.369 219.583 366.27C222.008 332.183 214.156 309.207 202.635 283.12C198.003 271.324 189.94 265.478 181.827 265.86L181.827 265.858Z" fill="#AA0000"/>
<path fill-rule="evenodd" clip-rule="evenodd" d="M114.307 289.189C116.922 308.723 119.211 318.37 124.081 339.074C116.975 357.292 77.3824 358.07 69.9809 340.738C68.0599 312.656 71.4834 292.178 81.654 272.079C90.0705 257.375 114.743 244.636 114.384 254.303C113.837 269.041 113.255 276.072 114.308 289.189L114.307 289.189Z" fill="#AA0000"/>
<path fill-rule="evenodd" clip-rule="evenodd" d="M250.092 287.5C247.964 307.092 245.916 316.793 241.564 337.613C249.12 355.648 288.72 355.44 295.688 337.929C296.909 309.808 292.977 289.421 282.31 269.583C273.53 255.094 248.548 242.973 249.147 252.628C250.06 267.347 250.817 274.361 250.092 287.501L250.092 287.5Z" fill="#AA0000"/>
<path fill-rule="evenodd" clip-rule="evenodd" d="M121.126 326.396C113.598 331.985 104.552 335.309 94.782 335.431C85.5443 335.546 76.8648 332.787 69.4688 327.922C69.4991 332.021 69.677 336.285 69.9817 340.737C77.3835 358.069 116.986 357.293 124.092 339.075C122.978 334.341 122.004 330.224 121.125 326.395L121.126 326.396Z" fill="#550000"/>
<path fill-rule="evenodd" clip-rule="evenodd" d="M244.203 324.863C251.868 330.263 260.994 333.361 270.764 333.24C280.001 333.125 288.609 330.151 295.882 325.103C295.954 329.202 295.882 333.469 295.688 337.927C288.72 355.437 249.11 355.648 241.553 337.612C242.549 332.852 243.42 328.712 244.202 324.863L244.203 324.863Z" fill="#550000"/>
<path fill-rule="evenodd" clip-rule="evenodd" d="M145.963 349.945C145.978 356.321 146.341 363.121 147.102 370.507C153.752 384.701 175.827 390.598 194.06 387.353C195.931 387.02 197.769 386.593 199.537 386.066C208.821 383.302 216.425 377.871 219.324 369.607C219.424 368.484 219.505 367.366 219.583 366.266C220.015 360.195 220.116 354.489 219.933 349.042C209.54 356.702 196.854 361.286 183.106 361.457C169.349 361.629 156.547 357.353 145.963 349.946L145.963 349.945Z" fill="#550000"/>
<path d="M204.533 234.348C204.683 246.385 195.046 256.264 183.009 256.414C170.972 256.564 161.092 246.928 160.943 234.891C160.793 222.853 170.429 212.974 182.466 212.824C194.504 212.674 204.383 222.311 204.533 234.348Z" fill="#333333"/>
<path d="M175.366 245.124L181.326 245.049L181.07 224.48L174.602 225.861L174.561 222.538L180.992 221.157L184.64 221.112L184.938 245.005L190.897 244.93L190.936 248L175.404 248.194L175.366 245.124" fill="#3771C8"/>
<path fill-rule="evenodd" clip-rule="evenodd" d="M227.627 160.945C227.918 184.294 207.118 203.483 181.17 203.807C155.221 204.13 133.95 185.464 133.659 162.117C133.368 138.769 154.168 119.579 180.116 119.255C206.064 118.932 227.335 137.597 227.627 160.945V160.945Z" fill="#333333"/>
<path fill-rule="evenodd" clip-rule="evenodd" d="M216.853 161.602C217.071 179.11 202.042 193.492 183.285 193.726C164.529 193.959 149.146 179.955 148.928 162.448C148.71 144.94 163.739 130.558 182.496 130.324C201.253 130.09 216.635 144.094 216.853 161.602V161.602Z" fill="#1A1A1A"/>
<path fill-rule="evenodd" clip-rule="evenodd" d="M212.335 161.555C212.548 178.673 197.515 192.739 178.758 192.972C160.001 193.206 144.623 179.518 144.41 162.401C144.196 145.284 159.229 131.217 177.986 130.984C196.743 130.75 212.121 144.438 212.335 161.555V161.555Z" fill="#666666"/>
<path fill-rule="evenodd" clip-rule="evenodd" d="M214.595 161.615C214.805 178.492 199.769 192.363 181.013 192.597C162.256 192.83 146.88 179.338 146.67 162.461C146.46 145.584 161.495 131.712 180.252 131.479C199.008 131.245 214.385 144.738 214.595 161.615V161.615Z" fill="#80B3FF"/>
<path d="M196.404 138.207C189.044 131.589 182.414 144.36 189.796 149.171C194.918 155.303 208.321 158.806 204.399 169.119C201.938 172.031 203.067 179.808 207.241 174.651C209.745 166.631 208.806 157.486 206.792 149.487C204.656 144.816 201.257 140.262 196.404 138.207L196.404 138.207Z" fill="#D5E5FF"/>
<path d="M167.955 168.817C164.699 167.305 161.712 164.159 157.785 165.49C154.587 167.25 155.706 171.952 157.301 174.498C159.22 177.873 162.88 179.862 166.721 179.912C169.686 180.138 172.651 179.802 175.614 179.732C178.355 177.128 175.712 172.976 172.999 171.52C171.402 170.469 169.633 169.725 167.955 168.817L167.955 168.817Z" fill="#D5E5FF"/>
<path opacity="0.38115" fill-rule="evenodd" clip-rule="evenodd" d="M180.154 266.021C173.099 267.103 166.179 272.923 161.635 283.63C152.021 304.374 145.904 323.334 145.965 349.948C145.967 350.749 145.982 351.552 145.995 352.367C146.007 353.117 146.019 353.866 146.041 354.627C146.046 354.797 146.042 354.969 146.047 355.14C146.065 355.71 146.081 356.274 146.104 356.852C146.11 357.005 146.121 357.157 146.127 357.311L146.129 357.487C146.163 358.27 146.204 359.057 146.247 359.853C146.253 359.953 146.263 360.052 146.269 360.153C146.311 360.91 146.369 361.676 146.421 362.447C146.48 363.313 146.542 364.193 146.613 365.076C146.684 365.968 146.757 366.866 146.84 367.775C146.924 368.683 147.009 369.584 147.104 370.509C147.312 370.953 147.536 371.38 147.774 371.808C148.25 372.667 148.77 373.484 149.359 374.278C149.944 375.068 150.589 375.826 151.277 376.55C152.995 378.36 155.019 379.973 157.271 381.368C158.171 381.926 159.111 382.449 160.081 382.94C160.565 383.185 161.055 383.417 161.555 383.646C162.555 384.103 163.589 384.525 164.644 384.914C166.754 385.693 168.948 386.34 171.22 386.845C171.226 386.846 171.232 386.844 171.238 386.845C172.078 387.032 172.932 387.195 173.787 387.343C166.625 372.639 162.21 353.954 161.956 333.572C161.617 306.384 168.744 282.038 180.153 266.021L180.154 266.021Z" fill="#2B0000"/>
<path fill-rule="evenodd" clip-rule="evenodd" d="M110.609 250.935C103.427 251.129 87.9566 261.055 81.6438 272.083C73.0856 288.995 69.3035 306.165 69.4644 327.919C69.4647 327.96 69.4656 328.002 69.466 328.043C69.4726 328.869 69.4969 329.71 69.5149 330.55C69.5184 330.71 69.5168 330.867 69.5208 331.027C69.5367 331.693 69.5583 332.364 69.5812 333.04C69.6102 333.874 69.6436 334.716 69.6832 335.564C69.7123 336.184 69.7426 336.807 69.7772 337.435C69.8365 338.525 69.901 339.621 69.9772 340.735C70.7868 342.631 71.9888 344.314 73.484 345.778C73.6976 345.987 73.9017 346.188 74.1274 346.388C75.2578 347.392 76.5447 348.276 77.9401 349.06C78.4024 349.32 78.8754 349.566 79.3622 349.802L79.6465 349.94C80.5386 350.359 81.4546 350.732 82.4156 351.071C82.4209 351.073 82.4282 351.069 82.4333 351.071C84.0219 351.63 85.7031 352.096 87.4307 352.439C89.8573 352.92 92.3906 353.191 94.9465 353.246C105.171 353.465 115.76 350.271 121.284 343.734C122.271 342.567 123.093 341.288 123.727 339.907C123.853 339.631 123.976 339.357 124.087 339.072C122.974 334.338 122 330.222 121.121 326.393C118.158 313.478 116.317 304.264 114.3 289.196C113.248 276.078 113.83 269.034 114.377 254.297C114.467 251.88 113.003 250.871 110.609 250.935L110.609 250.935Z" fill="#2A0000" fill-opacity="0.38039"/>
<path fill-rule="evenodd" clip-rule="evenodd" d="M250.272 272.119C250.43 276.849 250.422 281.548 250.093 287.504C248.452 302.617 246.841 311.875 244.2 324.86C243.845 326.605 243.48 328.374 243.084 330.278C242.587 332.668 242.123 334.871 241.551 337.609C241.669 337.891 241.799 338.161 241.932 338.434C242.599 339.799 243.454 341.057 244.469 342.2C244.675 342.431 244.895 342.658 245.113 342.88C245.326 343.097 245.533 343.318 245.757 343.526C245.761 343.529 245.772 343.523 245.775 343.526C245.999 343.733 246.218 343.936 246.454 344.135C246.696 344.34 246.949 344.531 247.203 344.726C247.453 344.92 247.691 345.116 247.952 345.3C247.955 345.303 247.965 345.297 247.969 345.3C248.226 345.481 248.487 345.665 248.753 345.837C249.23 346.148 249.724 346.437 250.23 346.72C252.968 338.45 254.988 327.218 255.66 314.774C256.665 296.174 254.396 279.941 250.272 272.119L250.272 272.119Z" fill="#290000" fill-opacity="0.1451"/>
<path opacity="0.21311" d="M207.216 35.9022C211.789 46.0749 215.461 52.1779 208.583 73.6353C210.998 50.3993 186.224 18.0454 190.821 19.0864C196.207 17.3018 202.434 25.2653 207.217 35.9042L207.216 35.9022Z" fill="white"/>
<path fill-rule="evenodd" clip-rule="evenodd" d="M176.6 119.425C152.307 121.339 133.373 139.829 133.652 162.116C133.93 184.42 153.346 202.439 177.704 203.724C155.765 199.386 139.292 182.472 139.038 162.049C138.784 141.642 154.805 124.323 176.602 119.424L176.6 119.425Z" fill="#2B2B2B"/>
<path opacity="0.21311" d="M272.311 265.418C274.99 270.808 275.543 275.982 273.547 276.974C271.551 277.966 267.761 274.401 265.082 269.011C262.403 263.621 261.849 258.447 263.845 257.455C265.842 256.463 269.632 260.028 272.311 265.418Z" fill="white"/>
<path opacity="0.21311" d="M191.781 286.999C191.555 295.312 188.78 302.111 185.582 302.186C182.383 302.26 179.974 295.581 180.199 287.268C180.425 278.954 183.2 272.155 186.398 272.081C189.596 272.007 192.006 278.685 191.781 286.999Z" fill="white"/>
</g>
<defs>
<clipPath id="clip0">
<rect width="377.122" height="478.938" fill="white"/>
</clipPath>
</defs>
</svg>
