<svg width="378" height="479" viewBox="0 0 378 479" fill="none" xmlns="http://www.w3.org/2000/svg">
<g clip-path="url(#clip0)">
<path d="M180.755 335.088C183.422 339.479 186.841 343.619 187.423 348.93C189.037 354.724 187.709 360.737 188.643 366.635C187.892 373.116 192.973 377.933 195.699 383.22C197.971 386.128 199.33 383.976 196.391 382.265C192.039 378.052 186.827 372.923 180.198 374.037C175.779 374.499 171.137 375.437 166.955 373.304C160.389 370.945 155.461 365.844 151.328 360.43C149.486 357.627 144.58 353.344 146.087 350.555C150.686 351.984 154.742 348.803 158.822 347.281C163.266 345 166.987 341.676 170.942 338.722C174.044 337.456 177.071 333.411 180.278 334.174L180.755 335.088L180.755 335.088Z" fill="#FFCC00"/>
<path opacity="0.5123" d="M177.432 334.427C180.799 338.949 185.575 343.097 186.246 349.005C186.584 352.03 185.039 354.806 185.247 357.835C185.202 364.009 187.79 369.93 191.129 375.061C192.223 379.783 197.705 381.008 200.128 384.763C200.784 385.745 200.841 387.583 199.671 385.872C196.581 382.196 196.059 376.401 191.456 374.064C185.375 372.985 180.977 379.516 174.845 378.189C168.525 377.55 161.537 376.047 157.215 370.797C153.637 366.913 152.434 361.591 151.944 356.519C151.752 353.977 151.258 351.431 151.174 348.901C151.848 343.422 156.477 339.759 160.845 337.152C162.833 335.629 165.293 335.282 167.767 335.405C171.012 335.4 174.362 335.59 177.432 334.427L177.432 334.427Z" fill="#FFFF00"/>
<path opacity="0.5123" d="M175.891 334.966C178.064 338.201 181.391 341.138 181.475 345.317C181.758 347.618 181.838 349.964 181.498 352.272C181.276 354.486 180.675 356.661 180.563 358.879C180.817 364.285 184.414 368.978 188.781 371.899C189.237 372.373 190.479 373.121 189.326 372.062C187.837 370.818 186.343 369.122 184.303 368.95C179.418 368.525 174.781 371.699 169.894 370.377C166.328 370.263 163.59 367.392 162.201 364.323C160.985 361.784 160.498 358.988 159.528 356.358C158.802 354.092 158.32 351.159 160.339 349.4C162.343 347.921 164.697 346.972 166.766 345.577C168.588 344.246 170.925 343.269 172.164 341.348C172.995 339.45 172.517 336.925 174.224 335.467C174.703 335.115 175.306 334.98 175.892 334.966L175.891 334.966Z" fill="#FF0000"/>
<path opacity="0.5123" d="M175.327 336.6C177.673 340.181 181.113 343.552 181.25 348.095C181.361 351.409 180.833 354.711 180.325 357.976C179.661 361.236 179.447 364.798 181.146 367.798C182.664 371.232 184.978 374.318 188.026 376.535C186.181 375.164 184.674 373.377 182.658 372.212C181.056 371.064 179.202 370.889 177.535 369.709C174.807 368.256 171.859 366.134 168.609 367.003C162.798 367.818 164.304 359.385 158.435 359.683C155.54 359.776 148.461 361.299 146.67 358.943C144.734 356.756 140.195 361.256 138.569 358.857C137.374 356.77 137.396 353.401 139.95 352.35C143.085 350.819 146.331 349.492 149.506 348.03C155.768 344.926 162.672 342.881 168.166 338.409C170.299 337.026 172.949 337.203 175.327 336.601L175.327 336.6Z" fill="#FF6600"/>
<path d="M162.453 342.494C164.469 344.61 167.576 343.172 170.091 343.671C172.882 343.539 174.193 346.17 175.613 348.093C177.877 350.774 175.705 354.107 175.429 357.083C175.333 360.107 178.125 362.424 180.398 363.956C182.332 366.409 185.347 368.796 184.598 372.302C184.883 372.233 183.918 366.968 181.349 367.077C178.673 367.334 176.706 370.917 173.739 368.844C170.864 367.843 168.851 365.463 166.48 363.663C163.632 360.881 161.107 357.621 159.423 354.016C158.738 351.251 158.466 348.327 158.654 345.489C158.959 342.894 163.639 345.366 163.785 343.136C163.352 342.899 162.88 342.746 162.453 342.494L162.453 342.494Z" fill="#FF0000"/>
<path d="M285.087 256.687C288.467 260.555 291.382 265.064 296.269 267.223C301.306 270.511 307.438 271.06 312.779 273.731C319.185 274.972 322.243 281.27 326.461 285.465C328.546 288.509 326.085 289.156 325.341 285.837C322.638 280.416 319.322 273.898 322.386 267.916C324.16 263.842 326.456 259.699 325.685 255.069C325.419 248.098 322.043 241.859 318.131 236.285C316.014 233.682 313.412 227.712 310.298 228.306C310.273 233.122 306.015 236.029 303.332 239.459C299.817 243.006 295.523 245.55 291.514 248.429C289.37 251.004 284.6 252.669 284.359 255.956L285.087 256.687L285.087 256.687Z" fill="#FFCC00"/>
<path opacity="0.5123" d="M285.46 253.319C288.754 257.895 291.266 263.7 296.696 266.124C299.478 267.359 302.59 266.724 305.415 267.837C311.315 269.658 316.179 273.913 320.062 278.645C324.233 281.113 323.745 286.709 326.594 290.154C327.332 291.075 329.067 291.685 327.789 290.053C325.217 285.997 319.851 283.75 319.012 278.655C319.82 272.533 327.374 270.312 327.96 264.066C329.259 257.848 329.936 250.732 326.236 245.027C323.613 240.443 318.903 237.689 314.216 235.691C311.851 234.74 309.572 233.501 307.186 232.657C301.759 231.645 296.869 234.952 293.066 238.33C291.013 239.765 289.939 242.005 289.31 244.401C288.325 247.492 287.495 250.744 285.46 253.319L285.46 253.319Z" fill="#FFFF00"/>
<path opacity="0.5123" d="M286.439 252.013C288.867 255.062 290.662 259.12 294.62 260.461C296.729 261.426 298.941 262.211 301.244 262.584C303.422 263.04 305.677 263.124 307.825 263.687C312.902 265.561 316.29 270.407 317.757 275.452C318.071 276.03 318.409 277.44 317.747 276.021C317.01 274.226 315.845 272.29 316.297 270.292C317.366 265.507 321.792 262.046 322.007 256.987C322.976 253.553 321.065 250.076 318.558 247.825C316.506 245.899 313.987 244.591 311.772 242.872C309.832 241.496 307.181 240.151 304.895 241.545C302.879 243.009 301.264 244.966 299.309 246.517C297.49 247.852 295.854 249.786 293.648 250.387C291.588 250.605 289.324 249.388 287.419 250.575C286.94 250.926 286.629 251.46 286.439 252.013L286.439 252.013Z" fill="#FF0000"/>
<path opacity="0.5123" d="M288.167 251.969C290.872 255.286 293.047 259.584 297.337 261.086C300.462 262.192 303.77 262.686 307.036 263.187C310.344 263.538 313.805 264.409 316.151 266.936C318.967 269.419 321.211 272.557 322.403 276.132C321.654 273.959 320.405 271.983 319.904 269.709C319.293 267.836 319.686 266.015 319.063 264.07C318.502 261.03 317.369 257.58 319.179 254.744C321.711 249.45 313.216 248.339 315.273 242.834C316.235 240.102 319.825 233.813 318.119 231.395C316.618 228.888 322.279 225.92 320.483 223.645C318.854 221.876 315.636 220.88 313.863 222.998C311.457 225.524 309.212 228.219 306.859 230.804C302.009 235.836 297.976 241.801 292.053 245.688C290.091 247.304 289.46 249.884 288.167 251.969L288.167 251.969Z" fill="#FF6600"/>
<path d="M297.673 241.475C299.081 244.035 296.772 246.564 296.489 249.112C295.52 251.733 297.633 253.777 299.037 255.711C300.91 258.679 304.743 257.614 307.663 258.25C310.575 259.072 311.941 262.433 312.715 265.062C314.47 267.646 315.835 271.242 319.403 271.586C319.252 271.837 314.523 269.327 315.403 266.912C316.456 264.437 320.466 263.644 319.386 260.189C319.299 257.147 317.638 254.509 316.638 251.705C314.846 248.15 312.5 244.759 309.571 242.065C307.142 240.577 304.437 239.435 301.675 238.758C299.109 238.265 300.052 243.473 297.883 242.939C297.787 242.454 297.784 241.958 297.673 241.475L297.673 241.475Z" fill="#FF0000"/>
<path d="M177.02 322.296C190.968 341.011 203.636 361.89 221.911 375.077C241.329 392.962 263.074 400.787 283.216 416.46C306.295 427.328 320.45 455.564 337.503 476.366C346.469 490.567 338.218 490.929 333.791 476.844C321.363 452.475 306.186 423.116 313.61 401.753C317.573 386.918 323.325 372.286 318.084 352.878C313.319 324.474 298.088 296.188 281.343 270.097C272.512 257.649 260.133 231.155 249.572 230.709C252.129 250.138 238.841 257.987 231.347 269.39C221.004 280.504 207.391 286.853 194.953 294.817C188.872 303.257 173.111 305.621 174.075 318.681L177.02 322.298L177.02 322.296Z" fill="#FFCC00"/>
<path opacity="0.5123" d="M176.475 309.034C190.508 330.528 202.483 356.275 222.799 371.028C233.206 378.56 243.739 378.842 254.228 385.92C275.857 398.67 295.203 420.302 311.381 442.969C327.322 456.751 328.693 478.909 340.547 495.426C343.633 499.823 350.035 503.871 344.67 496.112C333.448 477.375 313.45 463.394 307.717 442.05C307.176 418.059 332.369 415.992 330.983 391.298C332.107 367.369 330.564 339.246 314.491 312.819C302.799 291.907 284.816 276.475 267.328 264.117C258.537 258.116 249.888 251.026 241.082 245.436C221.55 236.388 206.271 245.274 194.828 255.441C188.44 259.36 185.917 267.428 185.032 276.53C183.29 288.116 182.176 300.493 176.474 309.034L176.475 309.034Z" fill="#FFFF00"/>
<path opacity="0.5123" d="M179.18 304.654C189.344 319.187 197.852 337.221 212.43 346.257C220.334 352.083 228.499 357.275 236.758 360.887C244.621 364.721 252.553 367.122 260.373 371.361C279.155 383.572 293.666 406.244 301.566 427.963C302.982 430.583 304.939 436.59 301.845 430.251C298.283 422.329 293.142 413.441 293.626 405.786C294.734 387.434 308.306 377.499 306.278 357.264C307.777 344.278 299.184 328.486 289.183 317.104C280.948 307.446 271.422 299.86 262.733 290.891C255.191 283.559 245.183 275.703 237.956 279.243C231.713 283.314 227.142 289.744 221.159 294.22C215.533 297.951 210.875 304.264 203.494 304.675C196.408 303.674 187.826 296.687 181.818 299.743C180.332 300.72 179.539 302.592 179.179 304.655L179.18 304.654Z" fill="#FF0000"/>
<path opacity="0.5123" d="M185.197 306.055C196.481 321.929 206.445 341.275 222.271 351.264C233.808 358.591 245.643 363.607 257.339 368.618C269.1 373.062 281.679 379.745 291.271 392.094C302.482 404.699 312.051 419.425 318.187 434.958C314.371 425.494 308.918 416.372 305.916 406.727C302.751 398.603 303.124 391.607 299.878 383.18C296.244 370.39 290.386 355.416 295.157 345.617C301.098 326.546 270.786 314.294 274.952 293.938C276.815 283.783 285.908 261.662 278.614 250.333C271.991 238.838 290.152 232.024 282.62 221.192C275.952 212.557 264.153 205.592 259.117 212.523C252.093 220.529 245.725 229.362 238.918 237.652C224.728 253.545 213.904 273.952 195.332 284.238C189.36 288.97 188.572 298.815 185.198 306.056L185.197 306.055Z" fill="#FF6600"/>
<path d="M212.666 272.356C218.997 283.986 212.313 292.09 212.723 302.123C210.777 311.824 219.288 322.011 225.263 331.109C233.44 344.809 246.258 344.013 256.816 349.248C267.451 355.232 274.074 370.056 278.225 381.385C285.782 393.428 292.531 409.199 305.198 413.85C304.807 414.727 286.893 400.264 288.643 391.313C290.962 382.281 304.549 382.744 298.872 367.801C296.897 355.432 289.639 343.26 284.6 331.018C276.381 315.021 266.313 299.177 254.593 285.618C245.282 277.388 235.195 270.301 225.165 265.041C215.923 260.704 222.084 282.602 214.204 278.463C213.605 276.418 213.319 274.412 212.665 272.357L212.666 272.356Z" fill="#FF0000"/>
<path d="M273.091 310.877C274.809 316.599 277.423 322.165 276.594 328.586C276.766 335.777 273.642 342.67 273.038 349.855C270.418 357.414 274.673 364.099 276.208 370.898C277.902 374.782 279.993 372.483 277.234 369.894C273.613 364.064 269.3 356.983 261.703 357.054C256.715 356.766 251.351 357.002 247.343 353.677C240.775 349.631 236.767 342.637 233.72 335.423C232.47 331.743 228.26 325.726 230.688 322.697C235.35 325.266 240.691 322.253 245.599 321.216C251.116 319.347 256.128 316.1 261.295 313.339C265.056 312.421 269.504 308.188 272.82 309.701L273.091 310.877L273.091 310.877Z" fill="#FFCC00"/>
<path opacity="0.5123" d="M269.619 309.463C272.071 315.474 276.176 321.306 275.279 328.453C274.814 332.111 272.347 335.117 271.738 338.756C269.98 346.084 271.187 353.61 273.44 360.338C273.337 366.156 279.026 368.648 280.653 373.569C281.102 374.86 280.656 377.054 279.843 374.8C277.461 369.847 278.491 362.863 274.075 359.215C267.687 356.783 261.043 363.711 254.668 360.974C247.894 359.019 240.625 355.912 237.325 348.856C234.466 343.563 234.615 337.011 235.479 330.892C235.971 327.835 236.132 324.716 236.74 321.695C238.997 315.311 245.1 311.834 250.626 309.564C253.233 308.129 256.034 308.182 258.721 308.796C262.29 309.404 265.922 310.264 269.619 309.463L269.619 309.463Z" fill="#FFFF00"/>
<path opacity="0.5123" d="M267.776 309.813C269.271 314.067 272.117 318.186 271.052 323.167C270.727 325.956 270.166 328.759 269.154 331.437C268.297 334.025 267.035 336.497 266.298 339.111C265.082 345.583 267.739 351.84 271.733 356.137C272.103 356.786 273.262 357.91 272.287 356.433C270.994 354.673 269.821 352.375 267.624 351.785C262.37 350.355 256.393 353.25 251.385 350.755C247.494 349.945 245.278 346.015 244.6 342.105C243.964 338.859 244.203 335.444 243.863 332.135C243.692 329.306 243.974 325.729 246.68 324.022C249.294 322.642 252.145 321.961 254.805 320.694C257.177 319.457 260.017 318.739 261.911 316.691C263.35 314.592 263.524 311.501 265.804 310.092C266.429 309.765 267.129 309.718 267.776 309.812L267.776 309.813Z" fill="#FF0000"/>
<path opacity="0.5123" d="M266.704 311.647C268.293 316.346 271.143 321.002 270.037 326.426C269.242 330.385 267.748 334.208 266.285 337.992C264.654 341.741 263.433 345.933 264.472 349.819C265.19 354.186 266.881 358.291 269.621 361.502C267.97 359.524 266.808 357.115 264.912 355.35C263.469 353.683 261.478 353.124 259.972 351.406C257.374 349.164 254.72 346.085 250.905 346.503C244.289 346.372 248.278 336.636 241.741 335.88C238.532 335.443 230.326 335.913 229.009 332.774C227.484 329.809 221.248 334.298 220.123 331.139C219.387 328.433 220.343 324.435 223.442 323.669C227.313 322.443 231.251 321.481 235.147 320.343C242.892 317.84 251.05 316.717 258.329 312.441C261.056 311.202 263.922 311.914 266.704 311.648L266.704 311.647Z" fill="#FF6600"/>
<path d="M250.915 316.215C252.547 319.11 256.362 317.99 258.989 319.059C262.095 319.43 262.809 322.804 263.838 325.358C265.586 328.972 262.275 332.522 261.149 336.005C260.207 339.581 262.636 342.862 264.712 345.112C266.16 348.393 268.816 351.8 267.021 355.824C267.354 355.796 267.749 349.356 264.894 349.001C261.88 348.799 258.726 352.686 256.036 349.661C253.152 347.927 251.597 344.719 249.487 342.131C247.125 338.287 245.25 333.935 244.396 329.332C244.408 325.917 244.917 322.391 245.91 319.055C246.963 316.029 251.425 319.852 252.203 317.23C251.792 316.866 251.316 316.595 250.915 316.215L250.915 316.215Z" fill="#FF0000"/>
<path fill-rule="evenodd" clip-rule="evenodd" d="M27.6373 35.2157C26.415 37.6372 25.4457 40.3648 24.76 43.388C24.4857 44.5973 24.2521 45.859 24.0682 47.162C23.7006 49.768 23.5142 52.5657 23.5242 55.5379C23.5316 57.767 23.6555 60.0862 23.8857 62.5155C24.6532 70.6132 26.6742 79.819 30.1307 90.0228C30.5203 91.2779 30.9334 92.5528 31.3576 93.8394C31.6882 94.842 32.0331 95.8476 32.384 96.8685C32.7248 97.8602 33.0676 98.8584 33.427 99.8665L33.6182 100.409C33.7572 100.796 33.9118 101.192 34.0535 101.581C34.0736 101.637 34.0841 101.693 34.1044 101.749L34.4586 102.698C34.7108 103.384 34.958 104.072 35.218 104.764L35.6242 105.842L35.6533 105.937C35.8713 106.511 36.1115 107.083 36.3348 107.662C36.5581 108.24 36.7687 108.828 36.9997 109.417C37.2555 110.069 37.5313 110.724 37.7934 111.381L38.3346 112.731L38.3492 112.779L38.3638 112.826L38.9352 114.232L39.2022 114.895C39.239 114.985 39.2846 115.069 39.3216 115.159L40.1683 117.211C40.351 117.65 40.5253 118.081 40.7105 118.521C40.7775 118.68 40.8521 118.833 40.9194 118.993C41.0222 119.236 41.1285 119.476 41.2321 119.72C41.2468 119.754 41.2621 119.789 41.2767 119.824C41.7068 120.837 42.1286 121.853 42.5711 122.876L42.7353 123.243C43.7615 125.609 44.8231 128.012 45.9121 130.421L46.0617 130.741C46.12 130.87 46.1747 131.004 46.2331 131.133C47.2187 133.306 48.2284 135.489 49.2604 137.691C50.0566 139.39 50.8716 141.098 51.6933 142.811C52.0095 143.47 52.3407 144.127 52.6605 144.788L52.9077 145.3C53.9461 147.442 54.9987 149.593 56.0721 151.751C57.0225 153.662 57.9952 155.58 58.9705 157.5L59.9917 159.525C60.0806 159.699 60.1654 159.872 60.2545 160.046C61.5279 162.53 62.8105 165.02 64.119 167.51C65.5037 170.146 66.9093 172.784 68.3274 175.419C68.7845 176.268 69.254 177.111 69.7142 177.96C70.7626 179.893 71.8099 181.82 72.8723 183.747C73.1089 184.176 73.352 184.601 73.5892 185.03C74.8454 187.3 76.0972 189.573 77.3685 191.828C77.78 192.559 78.1939 193.282 78.6068 194.01C79.548 195.67 80.5001 197.319 81.447 198.967C82.2519 200.368 83.0492 201.763 83.8571 203.154L85.5806 206.115C86.4595 207.617 87.3316 209.113 88.2119 210.6C89.1122 212.122 90.0207 213.623 90.9212 215.127C91.3096 215.776 91.6985 216.425 92.0868 217.07C93.3345 219.144 94.584 221.193 95.8277 223.228C96.1144 223.697 96.389 224.174 96.6754 224.641C97.8514 226.558 99.0232 228.442 100.192 230.319L101.261 232.03C102.547 234.086 103.826 236.119 105.098 238.119L105.728 239.115L106.123 239.726C107.475 241.843 108.823 243.934 110.153 245.978C111.545 248.118 112.924 250.212 114.286 252.265C115.023 253.376 115.74 254.447 116.467 255.53C117.293 256.761 118.111 257.988 118.923 259.181C119.033 259.343 119.141 259.495 119.25 259.656C119.913 260.628 120.562 261.558 121.214 262.504C120.996 262.566 120.783 262.648 120.559 262.756C120.212 262.923 119.865 263.145 119.507 263.416L119.499 263.431C119.323 263.564 119.144 263.711 118.966 263.867C118.906 263.92 118.84 263.973 118.78 264.028C118.737 264.068 118.693 264.118 118.65 264.159C118.453 264.347 118.248 264.545 118.05 264.76L117.863 264.96C117.496 265.371 117.142 265.829 116.776 266.322C116.594 266.568 116.408 266.825 116.227 267.09C115.62 267.975 115.017 268.964 114.435 270.037C112.781 273.084 111.253 276.806 110.116 280.763C109.689 282.245 109.333 283.76 109.025 285.285C108.998 285.417 108.961 285.545 108.936 285.677C108.74 286.684 108.58 287.692 108.445 288.698L108.346 289.486C108.295 289.921 108.247 290.36 108.209 290.793L108.207 290.872C108.122 291.858 108.063 292.828 108.051 293.791C108.047 294.109 108.061 294.426 108.065 294.74C108.068 294.964 108.08 295.19 108.087 295.412C108.094 295.615 108.092 295.819 108.103 296.021C108.128 296.506 108.152 296.979 108.199 297.453C108.31 298.182 108.446 298.89 108.569 299.612C108.744 300.635 108.921 301.658 109.121 302.668C109.225 303.193 109.332 303.719 109.443 304.241C109.469 304.363 109.502 304.484 109.528 304.606C109.749 305.627 109.982 306.634 110.231 307.643C110.284 307.862 110.348 308.076 110.403 308.295C110.636 309.214 110.865 310.129 111.121 311.04L111.143 311.111C111.404 312.037 111.676 312.972 111.962 313.89C112.075 314.252 112.189 314.613 112.305 314.973C112.576 315.81 112.864 316.638 113.156 317.469L113.487 318.386C113.749 319.108 114.014 319.837 114.292 320.556C114.365 320.746 114.431 320.94 114.506 321.13C114.792 321.86 115.1 322.583 115.404 323.311C115.649 323.896 115.892 324.484 116.148 325.068L116.312 325.436C117.287 327.637 118.361 329.828 119.505 332.022C119.729 332.453 119.942 332.889 120.173 333.319C120.306 333.567 120.446 333.809 120.581 334.057C120.835 334.523 121.096 334.986 121.358 335.452C121.901 336.418 122.45 337.395 123.027 338.364L123.527 339.191C123.77 339.592 124.021 339.986 124.27 340.387C124.722 341.117 125.178 341.832 125.65 342.565C126.763 344.293 127.92 346.042 129.147 347.792L129.421 348.178C129.848 348.784 130.276 349.381 130.717 349.99L130.785 350.086L130.824 350.127C131.299 350.781 131.782 351.442 132.273 352.101C132.746 352.733 133.228 353.374 133.716 354.011L133.777 354.084L134.488 355.003C134.767 355.364 135.044 355.73 135.328 356.092C135.712 356.58 136.098 357.061 136.491 357.552C136.635 357.733 136.781 357.904 136.927 358.085C137.469 358.761 138.003 359.437 138.564 360.119C138.568 360.123 138.576 360.123 138.58 360.127C138.81 360.267 139.051 360.399 139.288 360.525L139.335 360.55C139.531 360.654 139.735 360.756 139.935 360.851C140.135 360.945 140.344 361.032 140.552 361.12C140.574 361.129 140.593 361.144 140.615 361.153C140.68 361.18 140.744 361.211 140.81 361.237C140.849 361.252 140.888 361.264 140.927 361.28C140.933 361.282 140.937 361.286 140.943 361.288C140.96 361.294 140.981 361.291 140.998 361.297C141.064 361.322 141.127 361.356 141.193 361.381C141.305 361.422 141.417 361.462 141.53 361.501C141.885 361.622 142.231 361.732 142.596 361.829L142.666 361.847C142.672 361.848 142.677 361.853 142.682 361.855C142.859 361.901 143.036 361.939 143.216 361.98L143.467 362.034C143.504 362.042 143.54 362.045 143.577 362.052C143.832 362.104 144.09 362.143 144.348 362.183C144.353 362.184 144.358 362.191 144.364 362.192C144.659 362.238 144.937 362.285 145.237 362.317C145.537 362.349 145.84 362.362 146.144 362.381C146.425 362.397 146.705 362.406 146.989 362.411L147.147 362.415C147.406 362.417 147.667 362.419 147.929 362.412C147.984 362.41 148.04 362.402 148.095 362.4L148.158 362.394C148.39 362.385 148.621 362.381 148.854 362.365C148.881 362.363 148.907 362.369 148.933 362.367C149.251 362.344 149.563 362.308 149.884 362.273C150.325 362.226 150.77 362.175 151.216 362.103C151.303 362.089 151.39 362.078 151.477 362.063L151.787 362.007L151.811 362L152.255 361.917C153.051 361.758 153.855 361.546 154.657 361.317L154.705 361.302C155.034 361.207 155.347 361.125 155.676 361.019L155.923 360.931C156.233 360.829 156.547 360.72 156.856 360.608C157.079 360.528 157.304 360.449 157.526 360.365L157.877 360.232L158.54 359.965C158.887 359.821 159.234 359.674 159.579 359.518C160.061 359.301 160.533 359.06 161.011 358.821L161.091 358.784C161.332 358.663 161.573 358.534 161.812 358.408L162.622 357.979L162.678 357.949C163.862 357.292 165.029 356.577 166.163 355.804C166.743 355.409 167.315 355 167.878 354.578C167.899 354.562 167.921 354.548 167.942 354.532L167.951 354.516C168.218 354.315 168.478 354.104 168.741 353.897C168.993 353.698 169.252 353.505 169.499 353.301L169.669 353.171C169.824 353.042 169.968 352.903 170.122 352.772L170.308 352.611C170.442 352.495 170.579 352.383 170.712 352.266L170.833 352.151L171.068 351.936C171.148 351.863 171.239 351.802 171.318 351.729L171.327 351.713C171.487 351.567 171.647 351.417 171.804 351.268C172.129 350.961 172.447 350.652 172.761 350.337L172.989 350.098C173.011 350.076 173.039 350.059 173.061 350.037C173.439 349.651 173.791 349.254 174.151 348.857C174.307 348.685 174.47 348.521 174.623 348.348L174.777 348.17C175.127 347.767 175.475 347.369 175.805 346.957C175.965 346.755 176.115 346.548 176.271 346.345L176.402 346.174C176.615 345.894 176.83 345.614 177.033 345.33C177.64 344.479 178.207 343.607 178.721 342.728L178.887 342.416L178.969 342.3L179.21 341.848C179.369 341.553 179.52 341.248 179.668 340.951L179.885 340.507C180.098 340.059 180.296 339.615 180.481 339.163C180.605 338.861 180.734 338.56 180.845 338.257C180.929 338.027 181 337.79 181.077 337.56L181.18 337.254L181.189 337.199L181.214 337.153L181.423 336.423L181.545 335.968C181.583 335.82 181.61 335.669 181.644 335.521L181.652 335.505C181.721 335.204 181.779 334.902 181.834 334.601L181.88 334.365C181.918 334.135 181.954 333.911 181.985 333.681L182.003 333.571C182.037 333.304 182.065 333.042 182.087 332.775C182.112 332.472 182.126 332.162 182.135 331.86L182.141 331.623L182.128 331.536C182.128 331.509 182.13 331.483 182.13 331.457L182.135 331.259L182.144 330.944C182.13 330.343 182.08 329.742 182.001 329.147C182.001 329.142 182.01 329.135 182.01 329.131C181.93 328.531 181.811 327.937 181.661 327.344C178.006 324.137 174.816 321.351 171.878 318.744C171.639 318.532 171.418 318.343 171.183 318.133L170.859 317.84L169.083 316.253C169.436 316.41 169.792 316.554 170.146 316.7C170.212 316.727 170.276 316.757 170.341 316.784C170.896 317.008 171.463 317.223 172.023 317.421C172.102 317.448 172.179 317.478 172.258 317.506C172.805 317.695 173.344 317.873 173.895 318.039C174.19 318.127 174.486 318.21 174.781 318.291C175.19 318.403 175.603 318.508 176.013 318.608C176.079 318.623 176.144 318.637 176.21 318.652C176.839 318.802 177.454 318.953 178.087 319.073C178.118 319.079 178.15 319.078 178.181 319.084C179.425 319.317 180.678 319.499 181.936 319.625C182.088 319.64 182.24 319.655 182.393 319.668C183.009 319.724 183.635 319.75 184.254 319.78C184.299 319.783 184.343 319.79 184.388 319.792C190.079 320.058 195.871 319.308 201.568 317.826C201.656 317.803 201.743 317.769 201.831 317.746L201.899 317.843L202.629 318.952C202.743 319.124 202.863 319.287 202.979 319.459C203.421 320.116 203.866 320.776 204.325 321.438C204.798 322.12 205.295 322.812 205.788 323.499C205.977 323.763 206.175 324.023 206.367 324.288C206.866 324.976 207.367 325.666 207.885 326.359C207.948 326.443 208.005 326.532 208.068 326.616C208.304 326.932 208.545 327.243 208.786 327.559C208.814 327.598 208.833 327.642 208.862 327.68C209.207 328.134 209.546 328.578 209.9 329.034C209.904 329.039 209.913 329.038 209.916 329.043C210.007 329.159 210.1 329.273 210.191 329.39C210.195 329.396 210.194 329.408 210.199 329.414L210.29 329.542C210.772 330.16 211.269 330.768 211.766 331.39L211.942 331.624C211.946 331.629 211.954 331.628 211.957 331.633C212.425 332.216 212.913 332.813 213.396 333.401C213.4 333.405 213.408 333.404 213.412 333.409C213.927 334.037 214.449 334.673 214.981 335.307C215.083 335.428 215.186 335.549 215.288 335.67C215.632 336.079 215.963 336.487 216.314 336.898L216.836 337.497C216.839 337.501 216.848 337.5 216.851 337.505C217.444 338.193 218.032 338.887 218.645 339.582C219.494 340.061 220.378 340.47 221.283 340.829C221.288 340.831 221.293 340.835 221.298 340.837C221.746 341.017 222.211 341.181 222.676 341.332C223.611 341.634 224.568 341.873 225.548 342.063C225.633 342.079 225.715 342.101 225.799 342.117C226.152 342.182 226.511 342.236 226.869 342.287C226.925 342.295 226.979 342.308 227.035 342.315C227.473 342.375 227.913 342.421 228.358 342.461C228.512 342.474 228.668 342.478 228.823 342.489C228.886 342.493 228.949 342.506 229.012 342.51C229.337 342.531 229.663 342.54 229.991 342.551C230.041 342.553 230.09 342.57 230.141 342.571C230.835 342.591 231.545 342.581 232.25 342.555C232.573 342.543 232.891 342.531 233.215 342.51C233.221 342.509 233.226 342.518 233.231 342.518C234.288 342.449 235.35 342.323 236.424 342.16C236.961 342.078 237.496 341.982 238.035 341.878C239.115 341.669 240.202 341.406 241.287 341.11C242.914 340.667 244.542 340.145 246.156 339.524L246.164 339.508C246.698 339.303 247.237 339.088 247.769 338.863L247.777 338.848C247.993 338.756 248.21 338.667 248.425 338.572L248.448 338.565C248.74 338.436 249.029 338.304 249.32 338.169C249.369 338.147 249.423 338.133 249.472 338.11L250.144 337.788C250.945 337.404 251.741 337.002 252.53 336.579C253.571 336.02 254.608 335.426 255.618 334.803C259.66 332.311 263.424 329.332 266.665 326.024C267.994 324.667 269.228 323.248 270.362 321.792C272.223 319.404 273.81 316.902 275.022 314.33C275.507 313.302 275.941 312.259 276.305 311.212C277.943 306.499 278.306 301.628 276.934 296.897C276.363 295.925 275.775 294.972 275.201 294.031C274.804 293.382 274.401 292.745 274.003 292.111C273.604 291.477 273.204 290.85 272.804 290.231L271.824 288.728L271.604 288.39C270.55 286.806 269.492 285.265 268.423 283.772L267.951 283.12C267.529 282.537 267.108 281.973 266.684 281.404L266.119 280.662C265.905 280.378 265.693 280.081 265.478 279.8C264.384 278.37 263.286 276.985 262.175 275.636C268.343 267.038 272.224 257.317 271.38 246.442C272.046 247.94 272.703 249.459 273.422 251.093L276.434 257.943C276.694 258.104 276.96 258.262 277.228 258.406C278.157 258.91 279.134 259.305 280.142 259.621C280.222 259.645 280.298 259.682 280.377 259.706C280.448 259.726 280.518 259.738 280.589 259.759C280.66 259.779 280.714 259.801 280.777 259.818C281.011 259.882 281.247 259.941 281.484 259.995C282.08 260.131 282.677 260.24 283.292 260.319L283.316 260.312C283.619 260.35 283.915 260.389 284.222 260.414C284.538 260.441 284.857 260.451 285.177 260.463C285.492 260.475 285.805 260.489 286.124 260.488C286.443 260.487 286.759 260.472 287.081 260.458C287.365 260.446 287.642 260.433 287.927 260.409C289.267 260.305 290.622 260.082 291.989 259.773C291.994 259.773 292 259.782 292.005 259.782C293.324 259.483 294.642 259.099 295.961 258.63L295.97 258.614C296.297 258.498 296.633 258.387 296.959 258.261L296.967 258.245C297.293 258.119 297.633 257.988 297.957 257.853C298.943 257.44 299.918 256.987 300.884 256.492C302.817 255.501 304.698 254.35 306.489 253.076C307.085 252.651 307.671 252.222 308.245 251.771C309.394 250.868 310.487 249.914 311.528 248.919L311.536 248.903C313.353 247.164 314.994 245.302 316.375 243.358C316.77 242.801 317.149 242.225 317.502 241.657C318.207 240.521 318.832 239.367 319.347 238.198C319.604 237.614 319.82 237.027 320.025 236.438C320.435 235.261 320.735 234.073 320.916 232.891C321.007 232.3 321.069 231.714 321.097 231.126C321.168 229.655 321.049 228.2 320.698 226.77C320.2 226.004 319.706 225.243 319.209 224.495L318.875 223.997C318.523 223.471 318.169 222.968 317.817 222.452L317.057 221.326C316.834 221.003 316.61 220.687 316.387 220.368C315.999 219.814 315.609 219.269 315.221 218.726C315.128 218.596 315.04 218.469 314.947 218.339C314.467 217.672 313.978 217.016 313.498 216.366C313.462 216.317 313.435 216.261 313.399 216.213L313.391 216.228C300.449 198.74 287.117 187.278 270.114 178.899C258.275 173.804 239.606 175.269 234.032 179.57C206.33 143.515 163.669 97.8105 124.601 63.37C123.464 62.3674 122.327 61.3561 121.196 60.3731C120.609 59.8623 120.028 59.3629 119.443 58.8576C118.898 58.3877 118.356 57.9129 117.813 57.4479C117.123 56.8566 116.437 56.2705 115.75 55.6873C115.308 55.312 114.876 54.9579 114.436 54.5862C112.862 53.2579 111.314 51.9533 109.759 50.671C109.102 50.1294 108.448 49.596 107.794 49.063L106.789 48.2465C106.03 47.6306 105.275 47.021 104.522 46.4172L103.849 45.8781C101.9 44.3224 99.9741 42.8029 98.0668 41.3335C97.2606 40.6902 96.4614 40.0795 95.6588 39.4689C94.0536 38.2476 92.455 37.0851 90.8678 35.9932C89.2754 34.8976 87.6994 33.8733 86.1297 32.9059C85.3474 32.4237 84.5724 31.9523 83.7966 31.5015C81.4637 30.1457 79.1712 28.9437 76.9083 27.8677C76.1557 27.5099 75.4196 27.1646 74.6759 26.8373C72.4506 25.8577 70.2572 25.0135 68.1221 24.3028L68.1065 24.2944C66.6795 23.8201 65.2853 23.4111 63.9045 23.0542C52.1675 20.018 42.1777 21.2036 35.3936 26.0019C32.2011 28.26 29.5938 31.3409 27.6382 35.2152L27.6373 35.2157Z" fill="#1A1A1A" stroke="#1A1A1A" stroke-width="5.6511"/>
<path fill-rule="evenodd" clip-rule="evenodd" d="M35.3945 25.9951C22.6245 35.0276 19.0756 57.363 30.1362 90.0149C52.3439 161.549 131.685 285.632 151.125 299.497C177.458 318.458 211.902 312.792 235.377 295.038C236.089 294.5 236.8 293.942 237.491 293.381C243.022 288.892 247.902 283.673 251.864 277.887C252.36 277.164 252.836 276.437 253.302 275.696C263.093 260.143 264.035 243.928 260.498 220.117C242.603 181.089 159.099 88.3615 98.0677 41.3396C72.2693 20.7536 48.1658 16.9678 35.3957 26.0003L35.3945 25.9951Z" fill="#3771C8"/>
<path fill-rule="evenodd" clip-rule="evenodd" d="M255.558 211.206C249.037 235.76 233.812 258.652 213.747 273.344C193.712 288.015 169.576 294.333 144.24 293.16C146.284 295.64 148.342 298.125 150.445 300.633C174.857 333.971 213.689 317.481 237.516 299.464C238.238 298.918 238.959 298.352 239.662 297.783C262.254 280.31 285.837 254.649 260.67 220.272C258.794 217.287 257.254 213.825 255.559 211.203L255.558 211.206Z" fill="#550000"/>
<path fill-rule="evenodd" clip-rule="evenodd" d="M35.392 25.9938C22.622 35.0262 19.0731 57.3617 30.1337 90.0136C33.2566 100.073 37.5111 111.182 42.5683 122.867C60.4192 125.053 79.4129 120.577 95.4144 108.86C111.219 97.2872 121.182 80.7984 124.61 63.3617C115.487 55.3188 106.557 47.8833 98.0671 41.3419C72.2687 20.7558 48.1621 16.9615 35.3931 25.9944L35.392 25.9938Z" fill="#808080"/>
<path opacity="0.36885" fill-rule="evenodd" clip-rule="evenodd" d="M35.392 25.9938C22.622 35.0262 19.0731 57.3617 30.1337 90.0136C50.3418 155.109 117.851 263.71 144.493 293.18C144.409 293.176 144.327 293.171 144.243 293.167C146.286 295.646 148.338 298.137 150.441 300.645C167.584 324.057 191.839 322.867 213.018 313.855C184.799 289.417 158.098 257.201 125.457 216.725C67.1683 139.342 25.9678 62.2212 35.3918 25.996L35.392 25.9938Z" fill="#1C2224"/>
<path fill-rule="evenodd" clip-rule="evenodd" d="M186.146 234.205C180.15 238.923 177.307 248.144 180.025 260.4C185.255 288.253 193.245 310.742 218.648 339.568C232.305 347.263 253.701 339.244 266.661 326.014C267.99 324.657 269.238 323.242 270.372 321.786C276.325 314.145 279.362 305.307 276.923 296.896C276.352 295.924 275.768 294.966 275.193 294.026C257.373 264.868 237.638 250.722 213.111 236.175C202.49 229.261 192.53 229.183 186.147 234.206L186.146 234.205Z" fill="#AA0000"/>
<path fill-rule="evenodd" clip-rule="evenodd" d="M144.725 292.407C158.198 306.792 165.663 313.316 181.651 327.344C186.445 346.302 154.664 369.927 138.574 360.115C120.702 338.368 111.598 319.709 108.206 297.44C106.52 280.582 119.208 255.883 124.53 263.962C132.643 276.277 136.252 282.339 144.726 292.407L144.725 292.407Z" fill="#AA0000"/>
<path fill-rule="evenodd" clip-rule="evenodd" d="M254.289 212.181C263.935 229.368 267.901 238.455 276.447 257.932C293.072 268.226 325.19 245.061 320.694 226.759C305.358 203.156 290.318 188.842 270.114 178.886C254.552 172.189 227.175 176.829 233.27 184.341C242.561 195.794 247.25 201.064 254.29 212.183L254.289 212.181Z" fill="#AA0000"/>
<path fill-rule="evenodd" clip-rule="evenodd" d="M171.883 318.739C169 327.66 163.566 335.619 155.683 341.392C148.229 346.85 139.561 349.644 130.714 349.978C133.119 353.298 135.74 356.666 138.574 360.114C154.664 369.925 186.455 346.296 181.66 327.338C178.004 324.131 174.821 321.345 171.882 318.738L171.883 318.739Z" fill="#550000"/>
<path fill-rule="evenodd" clip-rule="evenodd" d="M271.192 246.02C280.568 245.965 289.796 243.187 297.68 237.415C305.133 231.957 310.414 224.537 313.404 216.205C315.842 219.5 318.262 223.015 320.693 226.757C325.189 245.059 293.064 268.232 276.438 257.937C274.484 253.484 272.79 249.608 271.192 246.02L271.192 246.02Z" fill="#550000"/>
<path fill-rule="evenodd" clip-rule="evenodd" d="M205.779 323.488C209.493 328.669 213.737 333.995 218.646 339.565C232.302 347.26 253.698 339.242 266.658 326.011C267.987 324.654 269.236 323.239 270.37 321.784C276.323 314.142 279.359 305.305 276.921 296.893C276.35 295.921 275.766 294.964 275.191 294.023C272.017 288.83 268.786 284.126 265.475 279.798C261.461 292.069 253.795 303.168 242.702 311.291C231.602 319.419 218.697 323.372 205.779 323.488L205.779 323.488Z" fill="#550000"/>
<path d="M186.333 195.366C193.445 205.079 191.337 218.718 181.625 225.83C171.912 232.942 158.273 230.834 151.161 221.121C144.049 211.408 146.157 197.769 155.87 190.657C165.582 183.545 179.221 185.653 186.333 195.366Z" fill="#333333"/>
<path d="M168.846 221.076L173.654 217.555L161.501 200.957L157.038 205.837L155.075 203.156L159.508 198.297L162.452 196.142L176.569 215.421L181.378 211.9L183.192 214.377L170.66 223.553L168.846 221.076" fill="#3771C8"/>
<path fill-rule="evenodd" clip-rule="evenodd" d="M162.509 122.197C176.305 141.037 170.515 168.738 149.578 184.069C128.641 199.401 100.484 196.557 86.6887 177.718C72.8936 158.879 78.6834 131.178 99.6203 115.847C120.557 100.515 148.714 103.358 162.509 122.197V122.197Z" fill="#333333"/>
<path fill-rule="evenodd" clip-rule="evenodd" d="M154.12 128.988C164.464 143.115 160.58 163.551 145.446 174.633C130.311 185.716 109.656 183.248 99.3121 169.121C88.9679 154.994 92.8513 134.558 107.986 123.475C123.12 112.393 143.775 114.861 154.12 128.988V128.988Z" fill="#1A1A1A"/>
<path fill-rule="evenodd" clip-rule="evenodd" d="M150.414 131.574C160.528 145.386 156.457 165.567 141.323 176.649C126.188 187.731 105.72 185.519 95.6063 171.707C85.4926 157.895 89.5628 137.714 104.697 126.631C119.832 115.549 140.3 117.762 150.414 131.574V131.574Z" fill="#666666"/>
<path fill-rule="evenodd" clip-rule="evenodd" d="M152.288 130.31C162.26 143.928 158.075 163.952 142.94 175.034C127.806 186.116 107.453 184.061 97.4811 170.443C87.5094 156.825 91.6949 136.801 106.829 125.719C121.964 114.637 142.317 116.692 152.288 130.31V130.31Z" fill="#80B3FF"/>
<path d="M123.886 121.817C114.051 120.703 116.07 134.95 124.874 134.58C132.604 136.598 145.55 131.667 148.346 142.34C148.033 146.14 153.468 151.816 153.872 145.193C151.253 137.21 145.178 130.31 138.893 124.968C134.442 122.406 129.031 120.672 123.886 121.817L123.886 121.817Z" fill="#D5E5FF"/>
<path d="M118.501 163.257C114.972 163.917 110.713 163.091 108.289 166.454C106.708 169.744 110.349 172.923 113.127 174.069C116.648 175.702 120.783 175.196 123.939 173.006C126.484 171.469 128.703 169.474 131.075 167.695C131.794 163.984 127.231 162.139 124.177 162.529C122.266 162.6 120.394 163.022 118.501 163.257L118.501 163.257Z" fill="#D5E5FF"/>
<path opacity="0.38115" fill-rule="evenodd" clip-rule="evenodd" d="M184.879 235.309C179.764 240.286 177.509 249.043 180.028 260.399C184.247 282.87 190.277 301.857 205.782 323.489C206.249 324.14 206.727 324.785 207.211 325.441C207.656 326.044 208.101 326.646 208.561 327.254C208.663 327.39 208.76 327.532 208.863 327.667C209.209 328.121 209.549 328.572 209.904 329.028C209.998 329.15 210.095 329.267 210.189 329.388L210.294 329.531C210.775 330.148 211.265 330.766 211.763 331.388C211.826 331.467 211.891 331.541 211.955 331.62C212.429 332.212 212.921 332.802 213.411 333.399C213.962 334.071 214.523 334.75 215.094 335.428C215.669 336.113 216.251 336.802 216.847 337.493C217.441 338.184 218.034 338.868 218.649 339.566C219.076 339.807 219.507 340.024 219.948 340.235C220.835 340.658 221.733 341.021 222.673 341.325C223.608 341.628 224.574 341.871 225.554 342.061C228.004 342.536 230.588 342.674 233.231 342.503C234.288 342.434 235.358 342.314 236.432 342.151C236.969 342.069 237.502 341.973 238.042 341.869C239.122 341.66 240.209 341.403 241.294 341.108C243.463 340.517 245.626 339.769 247.769 338.861C247.774 338.859 247.778 338.853 247.783 338.851C248.575 338.515 249.365 338.152 250.148 337.776C235.778 329.964 221.333 317.317 209.29 300.87C193.227 278.933 184.891 254.974 184.878 235.309L184.879 235.309Z" fill="#2B0000"/>
<path fill-rule="evenodd" clip-rule="evenodd" d="M119.501 263.412C113.767 267.74 106.936 284.805 108.2 297.449C111.054 316.187 117.946 332.362 130.709 349.979C130.733 350.012 130.758 350.045 130.782 350.078C131.268 350.747 131.776 351.418 132.278 352.091C132.374 352.219 132.463 352.348 132.56 352.476C132.96 353.009 133.367 353.543 133.778 354.079C134.286 354.741 134.802 355.408 135.327 356.075C135.711 356.563 136.097 357.053 136.49 357.544C137.171 358.397 137.86 359.252 138.569 360.114C140.329 361.187 142.285 361.86 144.352 362.183C144.647 362.229 144.93 362.274 145.23 362.306C146.734 362.468 148.295 362.44 149.886 362.268C150.413 362.211 150.941 362.137 151.474 362.046L151.786 361.993C152.755 361.816 153.718 361.588 154.697 361.306C154.703 361.304 154.706 361.297 154.711 361.295C156.33 360.829 157.969 360.232 159.574 359.507C161.83 358.49 164.049 357.24 166.162 355.8C174.613 350.041 181.379 341.292 182.08 332.762C182.206 331.239 182.132 329.72 181.846 328.228C181.789 327.929 181.73 327.635 181.655 327.339C178 324.132 174.816 321.346 171.878 318.739C161.966 309.946 155.116 303.513 144.723 292.417C136.25 282.349 132.634 276.276 124.521 263.961C123.19 261.941 121.412 261.969 119.501 263.412L119.501 263.412Z" fill="#2A0000" fill-opacity="0.38039"/>
<path fill-rule="evenodd" clip-rule="evenodd" d="M245.505 199.555C248.379 203.314 251.102 207.145 254.292 212.185C261.733 225.441 265.797 233.914 271.188 246.018C271.912 247.645 272.642 249.298 273.426 251.077C274.409 253.312 275.31 255.375 276.434 257.936C276.694 258.097 276.957 258.242 277.224 258.387C278.56 259.11 279.986 259.638 281.476 259.979C281.778 260.048 282.089 260.105 282.396 260.159C282.695 260.212 282.991 260.272 283.295 260.31C283.299 260.311 283.305 260.3 283.309 260.3C283.612 260.339 283.908 260.377 284.216 260.402C284.532 260.428 284.849 260.436 285.169 260.449C285.484 260.461 285.793 260.482 286.112 260.48C286.116 260.48 286.121 260.47 286.126 260.47C286.44 260.469 286.759 260.467 287.076 260.453C287.645 260.428 288.215 260.377 288.791 260.313C286.217 251.991 281.34 241.673 274.661 231.153C264.678 215.427 253.404 203.529 245.505 199.555L245.505 199.555Z" fill="#290000" fill-opacity="0.1451"/>
<path opacity="0.21311" d="M73.2795 32.2504C82.91 37.8764 89.4433 40.7127 96.3043 62.1756C84.7776 41.8561 45.8204 29.9028 50.167 28.0811C53.5162 23.5 63.2095 26.3677 73.2815 32.2514L73.2795 32.2504Z" fill="white"/>
<path fill-rule="evenodd" clip-rule="evenodd" d="M96.8567 118.027C78.1906 133.692 73.513 159.739 86.6826 177.721C99.861 195.718 126.132 199.113 146.708 186.014C126.329 195.222 103.095 191.019 91.0284 174.54C78.9715 158.074 81.9573 134.67 96.8577 118.025L96.8567 118.027Z" fill="#2B2B2B"/>
<path opacity="0.21311" d="M259.555 181.302C264.866 184.134 268.321 188.025 267.272 189.992C266.223 191.959 261.067 191.258 255.756 188.425C250.445 185.593 246.99 181.702 248.039 179.735C249.088 177.768 254.244 178.469 259.555 181.302Z" fill="white"/>
<path opacity="0.21311" d="M206.526 245.635C211.17 252.534 212.859 259.681 210.298 261.599C207.738 263.517 201.898 259.478 197.254 252.58C192.61 245.681 190.921 238.533 193.482 236.616C196.042 234.698 201.882 238.736 206.526 245.635Z" fill="white"/>
</g>
<defs>
<clipPath id="clip0">
<rect width="377.122" height="478.938" fill="white"/>
</clipPath>
</defs>
</svg>
