<?xml version="1.0" encoding="UTF-8"?>
<svg viewBox="0 0 377.1225 478.93777" xmlns="http://www.w3.org/2000/svg">
 <g transform="translate(-67.173 -498.94)">
  <g transform="matrix(-.14631 -.11948 -.11948 .14631 371.4 735.12)">
   <path d="m740 725.22c0.47104 27.193-3.1351 55.387 9.2666 80.806 9.1519 30.499 32.088 53.66 44.574 82.703 21.678 26.89 12.547 62.813 15.286 94.186-1.9541 19.435-14.121 13.647-5.801-2.3203 7.5779-31.159 16.416-68.85 49.237-82.592 21.088-10.425 44.52-19.343 57.211-40.708 22.724-29.116 30.371-65.88 33.572-101.79 0.32262-17.756 10.181-50.793-4.4459-59.021-16.547 19.396-43.696 16.619-66.261 21.337-26.335 2.3469-52.389-2.0214-78.442-4.0645-17.465 3.0974-42.445-6.4528-54.646 6.0251l0.44777 5.4403z" fill="#fc0"/>
   <path d="m753.01 712.87c-2.2958 29.76-11.955 61.824 1.7371 90.167 7.038 14.496 21.797 22.555 29.426 36.703 17.649 27.512 22.801 61.331 22.351 93.736 8.4484 24.227-12.631 45.202-12.867 68.863-0.16082 6.2472 4.7774 14.637 5.1798 3.6726 3.446-25.192-10.594-52.604 3.4071-76.078 24.171-22.01 62.319-5.2048 86.015-28.474 26.486-20.721 53.522-47.197 58.032-82.911 5.0372-27.5-4.6152-54.726-16.755-78.816-6.322-11.919-11.309-24.714-18.081-36.274-18.502-22.624-49.574-25.941-76.496-25.262-13.203-1.2035-25.197 4.1943-35.925 11.737-14.537 9.1452-28.998 19.468-46.025 22.936z" fill="#ff0" opacity=".5123"/>
   <path d="m761.43 710.93c-0.58666 20.622-7.1808 43.17 4.2552 62.111 5.2356 11.105 11.506 21.832 19.551 31.205 7.2503 9.2806 16.088 17.32 22.855 26.933 14.141 24.917 11.304 56.091 9e-3 81.508-0.69973 3.4088-4.1485 10.27-1.9792 2.2673 3.147-9.7754 5.0423-21.59 13.693-28.126 20.665-15.71 50.388-14.603 68.53-34.331 15.644-10.587 19.785-31.179 17.329-48.842-1.7264-14.801-7.4516-28.693-10.541-43.21-3.1535-12.193-9.2862-26.685-23.294-28.852-13.154-0.95976-26.371 1.4459-39.574 1.0442-11.918-0.80846-25.139 1.4261-36.114-3.6723-9.0844-6.1523-14.083-18.805-25.845-20.505-3.1382-0.22043-6.2189 0.87766-8.8783 2.4691z" fill="#f00" opacity=".5123"/>
   <path d="m768.57 716.65c-0.38078 22.66-6.256 47.469 5.971 68.194 8.8673 15.148 20.563 28.436 32.067 41.616 12.184 12.718 23.21 28.059 24.077 46.29 2.9145 19.661 1.2767 40.016-6.1065 58.554 4.387-11.352 6.0801-23.609 11.818-34.522 3.9245-9.6631 11.732-15.688 15.856-25.684 8.105-14.213 15.304-32.041 32.31-37.333 28.318-12.776-2.2562-46.273 24.861-61.522 13.221-7.7665 49.215-20.953 50.571-36.563 2.4879-15.262 35.524-7.9416 36.023-23.28-0.54909-12.719-10.167-27.736-24.57-25.224-18.361 2.006-36.644 5.2437-54.99 7.6671-36.803 3.801-73.486 14.162-110.72 9.6654-13.454-0.16363-24.816 8.1214-37.166 12.143z" fill="#f60" opacity=".5123"/>
   <path d="m842.86 706.65c-3.0456 15.167-21.021 17.514-30.867 26.855-12.868 7.2967-11.299 22.779-12.221 35.401-2.5588 18.399 16.585 27.181 26.228 39.72 8.9755 13.27 3.0249 31.53-2.8219 44.811-1.7239 16.447-8.4773 35.654 4.7875 49.229-1.4705 0.49995-12.031-25.801-0.22434-32.567 12.706-6.417 31.639 4.0672 39.063-13.599 10.04-12.605 12.324-28.947 17.852-43.708 4.8877-20.499 6.9764-42.231 4.3265-63.128-4.7477-14.313-11.793-28.171-20.656-40.341-8.6976-10.755-22.662 13.535-29.618 3.9677 1.2703-2.2854 2.9481-4.3049 4.1507-6.6403z" fill="#f00"/>
  </g>
  <g transform="matrix(.16134 .09824 -.09824 .16134 235.79 637.17)">
   <path d="m740 725.22c0.47104 27.193-3.1351 55.387 9.2666 80.806 9.1519 30.499 32.088 53.66 44.574 82.703 21.678 26.89 12.547 62.813 15.286 94.186-1.9541 19.435-14.121 13.647-5.801-2.3203 7.5779-31.159 16.416-68.85 49.237-82.592 21.088-10.425 44.52-19.343 57.211-40.708 22.724-29.116 30.371-65.88 33.572-101.79 0.32262-17.756 10.181-50.793-4.4459-59.021-16.547 19.396-43.696 16.619-66.261 21.337-26.335 2.3469-52.389-2.0214-78.442-4.0645-17.465 3.0974-42.445-6.4528-54.646 6.0251l0.44777 5.4403z" fill="#fc0"/>
   <path d="m753.01 712.87c-2.2958 29.76-11.955 61.824 1.7371 90.167 7.038 14.496 21.797 22.555 29.426 36.703 17.649 27.512 22.801 61.331 22.351 93.736 8.4484 24.227-12.631 45.202-12.867 68.863-0.16082 6.2472 4.7774 14.637 5.1798 3.6726 3.446-25.192-10.594-52.604 3.4071-76.078 24.171-22.01 62.319-5.2048 86.015-28.474 26.486-20.721 53.522-47.197 58.032-82.911 5.0372-27.5-4.6152-54.726-16.755-78.816-6.322-11.919-11.309-24.714-18.081-36.274-18.502-22.624-49.574-25.941-76.496-25.262-13.203-1.2035-25.197 4.1943-35.925 11.737-14.537 9.1452-28.998 19.468-46.025 22.936z" fill="#ff0" opacity=".5123"/>
   <path d="m761.43 710.93c-0.58666 20.622-7.1808 43.17 4.2552 62.111 5.2356 11.105 11.506 21.832 19.551 31.205 7.2503 9.2806 16.088 17.32 22.855 26.933 14.141 24.917 11.304 56.091 9e-3 81.508-0.69973 3.4088-4.1485 10.27-1.9792 2.2673 3.147-9.7754 5.0423-21.59 13.693-28.126 20.665-15.71 50.388-14.603 68.53-34.331 15.644-10.587 19.785-31.179 17.329-48.842-1.7264-14.801-7.4516-28.693-10.541-43.21-3.1535-12.193-9.2862-26.685-23.294-28.852-13.154-0.95976-26.371 1.4459-39.574 1.0442-11.918-0.80846-25.139 1.4261-36.114-3.6723-9.0844-6.1523-14.083-18.805-25.845-20.505-3.1382-0.22043-6.2189 0.87766-8.8783 2.4691z" fill="#f00" opacity=".5123"/>
   <path d="m768.57 716.65c-0.38078 22.66-6.256 47.469 5.971 68.194 8.8673 15.148 20.563 28.436 32.067 41.616 12.184 12.718 23.21 28.059 24.077 46.29 2.9145 19.661 1.2767 40.016-6.1065 58.554 4.387-11.352 6.0801-23.609 11.818-34.522 3.9245-9.6631 11.732-15.688 15.856-25.684 8.105-14.213 15.304-32.041 32.31-37.333 28.318-12.776-2.2562-46.273 24.861-61.522 13.221-7.7665 49.215-20.953 50.571-36.563 2.4879-15.262 35.524-7.9416 36.023-23.28-0.54909-12.719-10.167-27.736-24.57-25.224-18.361 2.006-36.644 5.2437-54.99 7.6671-36.803 3.801-73.486 14.162-110.72 9.6654-13.454-0.16363-24.816 8.1214-37.166 12.143z" fill="#f60" opacity=".5123"/>
   <path d="m842.86 706.65c-3.0456 15.167-21.021 17.514-30.867 26.855-12.868 7.2967-11.299 22.779-12.221 35.401-2.5588 18.399 16.585 27.181 26.228 39.72 8.9755 13.27 3.0249 31.53-2.8219 44.811-1.7239 16.447-8.4773 35.654 4.7875 49.229-1.4705 0.49995-12.031-25.801-0.22434-32.567 12.706-6.417 31.639 4.0672 39.063-13.599 10.04-12.605 12.324-28.947 17.852-43.708 4.8877-20.499 6.9764-42.231 4.3265-63.128-4.7477-14.313-11.793-28.171-20.656-40.341-8.6976-10.755-22.662 13.535-29.618 3.9677 1.2703-2.2854 2.9481-4.3049 4.1507-6.6403z" fill="#f00"/>
  </g>
  <g transform="matrix(.48043 .30088 -.49825 .69958 193.25 15.21)">
   <path d="m740 725.22c0.47104 27.193-3.1351 55.387 9.2666 80.806 9.1519 30.499 32.088 53.66 44.574 82.703 21.678 26.89 12.547 62.813 15.286 94.186-1.9541 19.435-14.121 13.647-5.801-2.3203 7.5779-31.159 16.416-68.85 49.237-82.592 21.088-10.425 44.52-19.343 57.211-40.708 22.724-29.116 30.371-65.88 33.572-101.79 0.32262-17.756 10.181-50.793-4.4459-59.021-16.547 19.396-43.696 16.619-66.261 21.337-26.335 2.3469-52.389-2.0214-78.442-4.0645-17.465 3.0974-42.445-6.4528-54.646 6.0251l0.44777 5.4403z" fill="#fc0"/>
   <path d="m753.01 712.87c-2.2958 29.76-11.955 61.824 1.7371 90.167 7.038 14.496 21.797 22.555 29.426 36.703 17.649 27.512 22.801 61.331 22.351 93.736 8.4484 24.227-12.631 45.202-12.867 68.863-0.16082 6.2472 4.7774 14.637 5.1798 3.6726 3.446-25.192-10.594-52.604 3.4071-76.078 24.171-22.01 62.319-5.2048 86.015-28.474 26.486-20.721 53.522-47.197 58.032-82.911 5.0372-27.5-4.6152-54.726-16.755-78.816-6.322-11.919-11.309-24.714-18.081-36.274-18.502-22.624-49.574-25.941-76.496-25.262-13.203-1.2035-25.197 4.1943-35.925 11.737-14.537 9.1452-28.998 19.468-46.025 22.936z" fill="#ff0" opacity=".5123"/>
   <path d="m761.43 710.93c-0.58666 20.622-7.1808 43.17 4.2552 62.111 5.2356 11.105 11.506 21.832 19.551 31.205 7.2503 9.2806 16.088 17.32 22.855 26.933 14.141 24.917 11.304 56.091 9e-3 81.508-0.69973 3.4088-4.1485 10.27-1.9792 2.2673 3.147-9.7754 5.0423-21.59 13.693-28.126 20.665-15.71 50.388-14.603 68.53-34.331 15.644-10.587 19.785-31.179 17.329-48.842-1.7264-14.801-7.4516-28.693-10.541-43.21-3.1535-12.193-9.2862-26.685-23.294-28.852-13.154-0.95976-26.371 1.4459-39.574 1.0442-11.918-0.80846-25.139 1.4261-36.114-3.6723-9.0844-6.1523-14.083-18.805-25.845-20.505-3.1382-0.22043-6.2189 0.87766-8.8783 2.4691z" fill="#f00" opacity=".5123"/>
   <path d="m768.57 716.65c-0.38078 22.66-6.256 47.469 5.971 68.194 8.8673 15.148 20.563 28.436 32.067 41.616 12.184 12.718 23.21 28.059 24.077 46.29 2.9145 19.661 1.2767 40.016-6.1065 58.554 4.387-11.352 6.0801-23.609 11.818-34.522 3.9245-9.6631 11.732-15.688 15.856-25.684 8.105-14.213 15.304-32.041 32.31-37.333 28.318-12.776-2.2562-46.273 24.861-61.522 13.221-7.7665 49.215-20.953 50.571-36.563 2.4879-15.262 35.524-7.9416 36.023-23.28-0.54909-12.719-10.167-27.736-24.57-25.224-18.361 2.006-36.644 5.2437-54.99 7.6671-36.803 3.801-73.486 14.162-110.72 9.6654-13.454-0.16363-24.816 8.1214-37.166 12.143z" fill="#f60" opacity=".5123"/>
   <path d="m842.86 706.65c-3.0456 15.167-21.021 17.514-30.867 26.855-12.868 7.2967-11.299 22.779-12.221 35.401-2.5588 18.399 16.585 27.181 26.228 39.72 8.9755 13.27 3.0249 31.53-2.8219 44.811-1.7239 16.447-8.4773 35.654 4.7875 49.229-1.4705 0.49995-12.031-25.801-0.22434-32.567 12.706-6.417 31.639 4.0672 39.063-13.599 10.04-12.605 12.324-28.947 17.852-43.708 4.8877-20.499 6.9764-42.231 4.3265-63.128-4.7477-14.313-11.793-28.171-20.656-40.341-8.6976-10.755-22.662 13.535-29.618 3.9677 1.2703-2.2854 2.9481-4.3049 4.1507-6.6403z" fill="#f00"/>
  </g>
  <g transform="matrix(-.14956 -.1646 -.17692 .12953 467.72 860.56)">
   <path d="m740 725.22c0.47104 27.193-3.1351 55.387 9.2666 80.806 9.1519 30.499 32.088 53.66 44.574 82.703 21.678 26.89 12.547 62.813 15.286 94.186-1.9541 19.435-14.121 13.647-5.801-2.3203 7.5779-31.159 16.416-68.85 49.237-82.592 21.088-10.425 44.52-19.343 57.211-40.708 22.724-29.116 30.371-65.88 33.572-101.79 0.32262-17.756 10.181-50.793-4.4459-59.021-16.547 19.396-43.696 16.619-66.261 21.337-26.335 2.3469-52.389-2.0214-78.442-4.0645-17.465 3.0974-42.445-6.4528-54.646 6.0251l0.44777 5.4403z" fill="#fc0"/>
   <path d="m753.01 712.87c-2.2958 29.76-11.955 61.824 1.7371 90.167 7.038 14.496 21.797 22.555 29.426 36.703 17.649 27.512 22.801 61.331 22.351 93.736 8.4484 24.227-12.631 45.202-12.867 68.863-0.16082 6.2472 4.7774 14.637 5.1798 3.6726 3.446-25.192-10.594-52.604 3.4071-76.078 24.171-22.01 62.319-5.2048 86.015-28.474 26.486-20.721 53.522-47.197 58.032-82.911 5.0372-27.5-4.6152-54.726-16.755-78.816-6.322-11.919-11.309-24.714-18.081-36.274-18.502-22.624-49.574-25.941-76.496-25.262-13.203-1.2035-25.197 4.1943-35.925 11.737-14.537 9.1452-28.998 19.468-46.025 22.936z" fill="#ff0" opacity=".5123"/>
   <path d="m761.43 710.93c-0.58666 20.622-7.1808 43.17 4.2552 62.111 5.2356 11.105 11.506 21.832 19.551 31.205 7.2503 9.2806 16.088 17.32 22.855 26.933 14.141 24.917 11.304 56.091 9e-3 81.508-0.69973 3.4088-4.1485 10.27-1.9792 2.2673 3.147-9.7754 5.0423-21.59 13.693-28.126 20.665-15.71 50.388-14.603 68.53-34.331 15.644-10.587 19.785-31.179 17.329-48.842-1.7264-14.801-7.4516-28.693-10.541-43.21-3.1535-12.193-9.2862-26.685-23.294-28.852-13.154-0.95976-26.371 1.4459-39.574 1.0442-11.918-0.80846-25.139 1.4261-36.114-3.6723-9.0844-6.1523-14.083-18.805-25.845-20.505-3.1382-0.22043-6.2189 0.87766-8.8783 2.4691z" fill="#f00" opacity=".5123"/>
   <path d="m768.57 716.65c-0.38078 22.66-6.256 47.469 5.971 68.194 8.8673 15.148 20.563 28.436 32.067 41.616 12.184 12.718 23.21 28.059 24.077 46.29 2.9145 19.661 1.2767 40.016-6.1065 58.554 4.387-11.352 6.0801-23.609 11.818-34.522 3.9245-9.6631 11.732-15.688 15.856-25.684 8.105-14.213 15.304-32.041 32.31-37.333 28.318-12.776-2.2562-46.273 24.861-61.522 13.221-7.7665 49.215-20.953 50.571-36.563 2.4879-15.262 35.524-7.9416 36.023-23.28-0.54909-12.719-10.167-27.736-24.57-25.224-18.361 2.006-36.644 5.2437-54.99 7.6671-36.803 3.801-73.486 14.162-110.72 9.6654-13.454-0.16363-24.816 8.1214-37.166 12.143z" fill="#f60" opacity=".5123"/>
   <path d="m842.86 706.65c-3.0456 15.167-21.021 17.514-30.867 26.855-12.868 7.2967-11.299 22.779-12.221 35.401-2.5588 18.399 16.585 27.181 26.228 39.72 8.9755 13.27 3.0249 31.53-2.8219 44.811-1.7239 16.447-8.4773 35.654 4.7875 49.229-1.4705 0.49995-12.031-25.801-0.22434-32.567 12.706-6.417 31.639 4.0672 39.063-13.599 10.04-12.605 12.324-28.947 17.852-43.708 4.8877-20.499 6.9764-42.231 4.3265-63.128-4.7477-14.313-11.793-28.171-20.656-40.341-8.6976-10.755-22.662 13.535-29.618 3.9677 1.2703-2.2854 2.9481-4.3049 4.1507-6.6403z" fill="#f00"/>
  </g>
  <path d="m412.2724,512.45544c-2.68417-.3908-5.57843-.44446-8.66296-.13548-1.23383.12359-2.50446.30239-3.79846.5415-2.588.47823-5.30029,1.18917-8.11567,2.14169-2.11159.71438-4.27161,1.56783-6.50232,2.557-7.43575,3.29724-15.5245,8.13484-24.10432,14.65038-1.06663.76775-2.14448,1.56401-3.23,2.37451-.84596.63166-1.69014,1.27786-2.54691,1.93452-.83229.63793-1.67014,1.27964-2.51207,1.94039l-.45358.35334c-.32331.25476-.64944.5269-.97404.78493-.0463.0367-.0962.0645-.14248.10134l-.78799.63721c-.56995.45657-1.14458.90955-1.71839,1.37577l-.8927.72702-.0814.0579c-.47492.38884-.94166.79825-1.41904,1.19343s-.96872.78163-1.45387,1.18756c-.53739.44953-1.07076.91886-1.611,1.37598l-1.10792.94145-.0407.029-.0407.029-1.15156.98781-.54378.46348c-.0736.0635-.13871.13342-.21231.19702l-1.67793,1.45424c-.3578.3124-.71136.61455-1.07016.9299-.12961.11393-.25124.23336-.38098.34766-.19848.17488-.39158.35151-.59036.52727-.0281.0249-.0562.0505-.0843.0753-.8246.72937-1.65424,1.45181-2.48354,2.19594l-.29664.27234c-1.91767,1.72374-3.85981,3.49309-5.79909,5.29028l-.25595.24339c-.10361.0961-.21334.19048-.317.28682-1.74747,1.62403-3.49803,3.27442-5.25845,4.95163-1.35829,1.2941-2.71967,2.60905-4.0836,3.93193-.52477.50897-1.04236,1.03146-1.56778,1.54444l-.4072.39697c-1.70181,1.66431-3.40743,3.34499-5.11347,5.04772-1.51052,1.50758-3.02067,3.03858-4.53192,4.57269l-1.59694,1.61116c-.13659.13947-.27355.27473-.41014.41439-1.95199,1.99588-3.90596,4.00215-5.85276,6.03341-2.0601,2.14945-4.11604,4.31953-6.16429,6.50024-.66028.70296-1.3109,1.41579-1.96952,2.12142-1.50049,1.6076-2.99584,3.21224-4.48596,4.83117-.3318.36047-.65795.72589-.98916,1.08683-1.75414,1.91158-3.5131,3.8202-5.24834,5.74133-.56179.62196-1.11628,1.24393-1.6758,1.8665-1.27558,1.41931-2.53707,2.84545-3.79973,4.26634-1.07353,1.20804-2.1431,2.40655-3.20622,3.61424l-2.2607,2.57377c-1.14567,1.31013-2.2874,2.61182-3.41874,3.91868-1.15701,1.3365-2.29276,2.67453-3.43342,4.00574-.49205.57424-.98348,1.14873-1.47231,1.72172-1.57074,1.84124-3.11762,3.67635-4.65272,5.5015-.35388.42074-.71889.83244-1.07076,1.25216-1.44498,1.72363-2.85968,3.43263-4.2688,5.13642l-1.28328,1.5566c-1.54177,1.87194-3.06398,3.73059-4.55705,5.57135l-.74496.9131-.45398.56818c-1.57855,1.9543-3.13343,3.89603-4.65039,5.80634-1.58749,1.99908-3.13617,3.97066-4.6506,5.91375-.81946,1.05143-1.60719,2.07156-2.40397,3.1048-.90513,1.17376-1.8088,2.33895-2.6834,3.48749-.11832.15538-.22861.30606-.34636.46095-.71197.93653-1.38754,1.84737-2.07816,2.76574-.12762-.18701-.27314-.3627-.44607-.54085-.26836-.27607-.58918-.53455-.95947-.7886l-.0174-.003c-.18191-.1248-.3781-.24787-.58285-.36691-.0686-.0398-.14062-.0861-.2117-.12524-.0515-.0283-.11257-.0537-.16533-.0816-.24077-.12754-.49351-.25872-.75993-.37886l-.24946-.1137c-.50536-.21708-1.05258-.40784-1.63629-.59827-.29065-.0949-.59403-.18956-.90238-.27753-1.03226-.29418-2.16122-.55209-3.36339-.76413-3.41415-.60176-7.429-.86896-11.54193-.69257-1.54159.0658-3.0906.20921-4.63432.40056-.13387.0166-.26705.0223-.40072.0399-1.01665.13363-2.02357.30181-3.0203.49362l-.77836.1553c-.42955.0901-.86075.18346-1.28377.28498l-.0755.0231c-.96169.23259-1.90052.4848-2.81761.77852-.30245.0969-.59823.21102-.89479.31475-.21152.0739-.42216.15652-.63045.23397-.19035.0708-.38482.13416-.57233.20794-.45259.17795-.89323.35077-1.32781.54619-.65594.33652-1.28481.68984-1.92972,1.03569-.91528.4907-1.8292.98261-2.72316,1.4929-.46474.26534-.93007.5336-1.38927.80446-.10794.0636-.21209.13285-.31973.19681-.89808.53378-1.77885,1.07354-2.65665,1.62947-.19064.12068-.37422.24879-.56393.37054-.79806.51242-1.59264,1.01968-2.37489,1.55163l-.061.0434c-.79549.54177-1.59503,1.09619-2.37509,1.65905-.3072.22161-.61378.44392-.91869.6689-.70723.52194-1.40088,1.0581-2.09627,1.5986l-.7647.60532c-.60203.4769-1.20901.95947-1.80276,1.4511-.15709.13005-.32033.25412-.47686.38522-.6014.50376-1.18917,1.02449-1.78261,1.54404-.47742.41786-.95824.83475-1.43079,1.26309l-.29665.27234c-1.77762,1.62314-3.51485,3.3363-5.23263,5.11717-.33706.34954-.68305.69023-1.01812,1.04613-.19268.20462-.37816.41346-.57021.62021-.36118.38889-.71739.78305-1.07644,1.17957-.74405.82151-1.49579,1.65198-2.23154,2.50705l-.62559.73624c-.30332.35757-.59706.7206-.89916,1.0841-.54862.6601-1.08175,1.32018-1.6267,2.00014-1.28584,1.60398-2.5775,3.25573-3.84752,4.97463l-.27944.3827c-.43871.5972-.86958,1.19185-1.30698,1.80333l-.0698.0957-.0262.0493c-.46946.65852-.94339,1.32584-1.41186,2.00054-.45005.64904-.90464,1.30955-1.35376,1.97453l-.0495.0812-.64635.96555c-.25335.37953-.51306.7581-.76572,1.14242-.34118.51896-.67509,1.03753-1.0162,1.56581-.12591.19471-.24101.38685-.36691.58285-.46892.72857-.94012,1.44959-1.40934,2.19798-.003.005.00013.0128-.003.0174-.0597.26264-.10774.53359-.15246.79811l-.009.0522c-.0363.21861-.0679.44496-.0942.66466s-.0427.44576-.0594.67053c-.002.0231-.0101.0465-.0117.0697-.005.0711-.0139.14072-.0179.2119-.002.0418-.001.0829-.003.12483-.0004.006-.003.0117-.003.0174-.00077.0181.009.0371.009.0552-.003.0709-.0157.14089-.0178.21189-.003.11915-.006.23777-.007.35709-.002.37488.003.73862.0269,1.11489l.006.0726c.00017.006-.003.0118-.003.0174 .0127.18282.0325.36295.0512.5459l.0285.25554c.004.0373.0126.073.0172.11036 .032.25768.0768.51464.12047.77249 .00083.005-.004.012-.003.0174 .05.29468.0932.57375.15803.86837s.14833.58583.22768.88011c.0737.27125.15333.53982.23943.81046l.0462.15105c.0805.2466.16097.49485.25118.7408 .0189.0521.0443.10194.0636.154l.026.0581c.0819.21648.15952.43493.24844.6508 .01.0244.013.0511.0231.0755 .1223.29425.25566.57877.39028.87171 .18537.40327.37482.80911.58416,1.20885 .0411.0786.0794.15687.12149.23539l.15044.2761 .0145.0203 .21989.39526c.40354.70413.85971,1.39932 1.33152,2.08705l.029.0407c.19399.28184.37143.55286.57616.83142l.16219.20644c.1949.26102.39846.52431.60239.78211 .14608.18593.29256.3741.44313.55826l.23752.29078 .46348.54378c.24689.28281.49616.56553.75324.84337 .35955.38857.73727.75926 1.11558,1.13728l.0608.064c.1909.19009.39002.3771.58538.56434l.66364.63126 .0464.0436c.99899.91506 2.04642,1.79435 3.13921,2.62468 .55905.42478 1.12834.83736 1.70765,1.23712 .0218.015.042.0316.0638.0466l.0174.003c.27568.18938.55826.36984.83798.55321 .26849.17603.53414.35961.8061.52992l.17687.11936c.17125.10622.3495.19906.522.30293l.2117.12524c.15226.0905.30212.18513.45529.27377l.14792.0786 .27842.1544c.0941.0531.18107.11942.27548.17182l.0174.003c.19021.10548.38286.20921.57425.31173 .39379.21092.78802.41391 1.18626.61194l.29877.13992c.0284.0139.0527.0357.0812.0495 .48554.23554.97434.44354 1.46488.65891 .21226.0933.41935.19631.63236.28572l.21758.0904c.49289.20355.98085.4074 1.47662.58926 .24179.0886.48601.16485.72824.24816l.2031.0701c.33366.1126.6669.22774 1.00099.32997 .9999.3063 2.00696.56709 3.00337.77506l.34827.0587 .13638.0409 .505.0851c.33026.0574.66689.10415.99552.14999l.49052.0648c.4926.0601.97554.1068 1.46296.13923 .32572.0216.65249.0481.97538.057 .24476.007.49159-.00088.73452-.001l.32226.00064 .0551-.009 .0522.009 .75781-.0334 .47038-.0281c.15286-.0117.30401-.0336.4559-.0485l.0174.003c.30709-.0304.61195-.0706.91474-.11439l.23812-.0315c.23098-.0364.45429-.0733.68249-.11774l.11035-.0172c.26378-.0528.52154-.10892.7813-.17271 .29488-.0724.59365-.15788.88305-.2451l.22658-.0692 .0785-.0405c.0252-.008.0505-.0149.0755-.0231l.18882-.0577 .30211-.0923c.56584-.20324 1.1193-.44156 1.65908-.70524 .004-.002.0133.005.0174.003 .54398-.26635 1.0697-.56693 1.58396-.897 1.88186-4.48439 3.51159-8.39351 5.05121-12.00688 .12522-.29387.2349-.56311.35871-.85287l.17496-.40031 .9419-2.18725c-.0366.3837-.0609.76727-.0864,1.14952-.005.071-.0134.14096-.0178.2119-.0367.59757-.06,1.2031-.0702,1.79696-.001.0836-.005.1661-.006.24967-.006.57867-.004,1.14667.0142,1.72164 .01.30745.025.61406.0418.92041 .0228.42276.0549.84824.0905,1.26888 .006.0669.0139.13352.0199.20036 .0576.64392.10994,1.27489.19669,1.9136 .004.0313.0158.0617.0201.0929 .17308,1.25362.39822,2.49973.67808,3.73194 .0341.1496.0681.29802.10366.4473 .1432.60207.31705,1.20433.48433,1.80092 .0121.0433.0194.0875.0317.1307 1.55348,5.48098 4.10203,10.73613 7.31541,15.66812 .0498.0763.10917.14771.15925.22385l-.0698.0957-.82069,1.0436c-.12651.16318-.24324.32848-.36965.49285-.4827.62768-.96797,1.25913-1.44943,1.90467-.49633.6654-.99511,1.35612-1.49033,2.04104-.1906.26367-.37428.5336-.56474.80022-.49379.69097-.98884,1.3854-1.48173,2.09622-.0598.0863-.12651.16852-.18629.25513-.22405.3243-.4428.6515-.6667.98003-.0275.0386-.0636.0711-.0902.11015-.32093.47205-.63423.93394-.95495,1.41497-.003.005.00011.0129-.003.0174-.0818.12316-.15955.24749-.24167.37116-.005.006-.0161.008-.0203.0145l-.0932.12757c-.4326.65268-.85171,1.31684-1.2841,1.98627l-.16594.24065c-.003.005.00011.013-.003.0174-.40456.62912-.8156,1.28123-1.22011,1.92543-.003.005.00013.0128-.003.0174-.43176.68771-.86987,1.38548-1.30172,2.09076-.0825.1346-.16507.27073-.24754.40598-.27792.45605-.56071.89944-.83872,1.36293l-.40195.6844c-.003.005.00014.0127-.003.0174-.46461.78058-.93585,1.55867-1.40094,2.36057-.18416.95625-.29139,1.92522-.34518,2.89677-.00041.006-.003.0115-.003.0174-.028.48136-.0367.97486-.0318,1.46317 .01.983.0872,1.96623.21793,2.9559 .0112.0853.0165.17023.0285.25554 .0504.35518.11285.71297.17797,1.06872 .0101.0551.0154.11049.0258.16553 .0823.4348.17832.86624.28204,1.30119 .0361.15075.0824.29953.12108.45023 .0157.061.0242.12486.0403.18588 .0825.31502.17773.62656.27112.94116 .0143.048.0142.10015.0287.14812 .20081.66457.43659,1.33508.68428,1.99582 .11348.30171.2267.59989.34958.90066 .002.005-.005.0126-.003.0174 .40064.98068.85746,1.94769 1.35317,2.91451 .24787.48341.50799.95973.77824,1.43858 .54049.9577 1.13526,1.90476 1.75977,2.8398 .93677,1.40256 1.9483,2.78024 3.04929,4.11386l.0174.003c.36427.44102.73882.88462 1.12104,1.3173l.0174.003c.15497.17533.30883.35257.46642.52637l.0144.0203c.21526.23582.4317.468.6519.70091 .0369.0394.0672.0858.10428.12504l.51866.53518c.61899.63846 1.25197,1.26582 1.90385,1.8791 .86056.80959 1.75216,1.60484 2.66358,2.36539 3.6457,3.0422 7.66581,5.66685 11.83058,7.68991 1.70862.82997 3.4467,1.55049 5.18687,2.16405 2.85496,1.0066 5.73091,1.71753 8.55483,2.05141 1.12955.13356 2.25587.21419 3.36441.22704 4.98842.0578 9.72297-1.14335 13.77462-3.94546 .74094-.84999 1.45817-1.71002 2.16775-2.55363 .48973-.58222.96555-1.16583 1.44042-1.74501s.9429-1.15821 1.40265-1.73347l1.11461-1.40595 .25027-.31597c1.16847-1.50211 2.29374-2.99483 3.37046-4.482l.46866-.65524c.41875-.58462.82014-1.16257 1.22558-1.74542l.52405-.77126c.20137-.29325.41613-.58854.61425-.88141 1.00905-1.49152 1.97417-2.97181 2.90008-4.45386 10.11123,3.12083 20.56072,3.71704 30.60688-.53412-1.20929,1.10715-2.44208,2.2119-3.76326,3.41286l-5.54021,5.02948c-.0702.29738-.13511.60042-.18752.89965-.18245,1.04156-.24762,2.09331-.22663,3.14957 .002.0829-.009.16676-.006.24967 .003.0736.0135.14416.017.21777s-.001.13175.003.19742c.0138.24195.0328.48384.0567.72592 .06.60844.14623,1.20948.26654,1.81793l.0145.0203c.0595.2999.11635.59216.18992.89165 .0754.30811.16672.61343.25664.92081 .0887.30309.17463.60424.27698.90633s.21656.59691.33217.89773c.10188.26566.20182.52406.31496.78738 .52378,1.23699 1.16545,2.45151 1.89178,3.65005 .002.004-.005.0136-.003.0174 .70166,1.15675 1.48383,2.28419 2.34808,3.38672l.0174.003c.21419.27305.42557.55672.64875.82575l.0174.003c.22325.26893.45467.54958.68652.81421 .70422.80393 1.4431,1.58506 2.21942,2.34422 1.55306,1.51853 3.24137,2.93738 5.01746,4.23083 .59188.43108 1.18451.85028 1.79469,1.25179 1.22072.80319 2.47219,1.53647 3.74684,2.20778l.0174.003c2.22586,1.17118 4.51215,2.13631 6.79399,2.82904 .65329.1983 1.31964.37526 1.97026.52922 1.30157.30806 2.59438.53483 3.86592.65187 .63567.0585 1.26067.0776 1.88398.0849 1.24685.0147 2.46893-.0769 3.64702-.28049 .589-.10182 1.16413-.22884 1.7311-.38864 1.41748-.39946 2.75946-.97371 4.00396-1.76047 .56872-.71534 1.13406-1.42493 1.68503-2.13357l.36671-.47544c.387-.50028.7512-.9958 1.12926-1.49302l.82657-1.07843c.23555-.3138.46378-.62664.69571-.93932 .40244-.54357.79588-1.0861 1.18758-1.62646 .0938-.12922.18621-.25365.27943-.3827 .48079-.6666.94731-1.33839 1.41187-2.00054 .0345-.0492.0791-.0929.11353-.14204l-.0174-.003c12.47787-17.82182 19.11795-34.10198 21.66856-52.88475 1.07543-12.84454-6.23767-30.08332-12.0854-34.00528 25.40186-37.7109 55.208-92.669 75.47237-140.64595 .58997-1.39671 1.18817-2.79602 1.76152-4.18021 .29803-.71929.58741-1.4281.88082-2.14382 .27282-.66564.55091-1.33059.81962-1.99296 .34183-.8421.67996-1.67858 1.01508-2.51518 .21558-.53825.41457-1.0597.62722-1.59558 .76018-1.91402 1.50618-3.79596 2.22888-5.67739 .30515-.79484.60342-1.58454.90161-2.37313l.45521-1.21268c.34329-.91505.68196-1.82401 1.01548-2.73002l.29769-.80943c.85705-2.34137 1.68676-4.65038 2.47513-6.92531 .35423-.96867.67974-1.92032 1.00414-2.8752 .64885-1.90974 1.24399-3.79462 1.77589-5.64631 .53366-1.85773 1.0049-3.67733 1.42427-5.47279 .20912-.89491.41015-1.77953.5915-2.65824 .54559-2.64255.95802-5.19792 1.26036-7.68531 .10052-.82724.19441-1.63489.26884-2.44401 .22281-2.42119.32746-4.76905.32398-7.0194l.003-.0174c-.003-1.50375-.0575-2.95574-.15717-4.37837-.84495-12.09393-5.13907-21.19128-11.84203-26.10222-3.15439-2.31104-6.90342-3.806-11.19808-4.43128z" fill="#1a1a1a" fill-rule="evenodd" stroke="#1a1a1a" stroke-width="5.6511"/>
  <g transform="matrix(.55724 .09396 -.09396 .55724 103.45 414.42)">
   <path d="m588.58 84.637c-24.737-12.418-62.567 0.63952-104.34 45.099-93.202 94.242-220.88 321.45-226.34 363.35-7.6798 56.905 29.849 105.97 77.119 127.84 1.4324 0.66257 2.8955 1.308 4.3474 1.9203 11.615 4.8982 23.827 8.1716 36.16 9.5412 1.5416 0.17121 3.074 0.30944 4.6186 0.42071 32.438 2.3367 58.541-9.6961 92.774-35.045 46.038-60.44 121.29-268.04 143.89-402.49 10.661-57.424-3.4989-98.212-28.236-110.63z" fill="#3771c8" fill-rule="evenodd"/>
   <path d="m482.72 582.63c-43.769 10.263-92.192 5.5527-131.84-13.542-39.59-19.067-69.553-51.493-88.819-92.029-2.1698 5.2562-4.3374 10.54-6.5012 15.911-31.727 65.878 26.357 112.78 74.329 134.98 1.4537 0.6728 2.9382 1.3286 4.4113 1.9511 46.095 20.726 105.8 36.181 138.52-31.741 3.0985-5.4151 7.2219-10.702 9.9041-15.532z" fill="#500" fill-rule="evenodd"/>
   <path d="m588.58 84.632c-24.737-12.418-62.567 0.63952-104.34 45.099-13.107 13.253-26.909 29.146-40.944 46.773 11.451 29.693 34.256 55.623 65.876 70.851 31.231 15.041 65.273 16.867 95.353 7.6992 4.9616-20.942 9.1361-41.076 12.28-59.78 10.661-57.424-3.4881-98.224-28.225-110.64z" fill="#808080" fill-rule="evenodd"/>
   <path d="m588.58 84.632c-24.737-12.418-62.567 0.63952-104.34 45.099-84.813 85.758-198.17 281.6-222 347.74-0.0641-0.13434-0.12375-0.26805-0.18767-0.40255-2.1698 5.2562-4.3512 10.533-6.515 15.905-22.281 46.264-0.22633 83.144 31.481 108.71 14.661-64.412 42.728-132.93 78.748-217.6 72.29-155.45 158.4-284 222.81-299.45z" fill="#1c2224" fill-rule="evenodd" opacity=".36885"/>
   <path d="m389.01 493.4c-12.36-5.4339-29.125-2.1947-45.998 12.255-39.136 31.359-67.597 62.562-91.453 126.23-0.64322 27.731 29.693 54.462 61.143 63.681 3.2256 0.94553 6.4748 1.7157 9.6918 2.2743 16.889 2.9326 33.216 0.31487 44.319-10.497 1.0428-1.7012 2.0514-3.41 3.0414-5.0908 30.689-52.105 36.343-94.699 38.633-145.11 1.9511-22.341-6.2208-37.956-19.378-43.74z" fill="#a00" fill-rule="evenodd"/>
   <path d="m263.64 477.19c-11.241 33.014-15.213 50.103-23.803 86.748-25.608 23.272-88.961-6.6792-87.039-39.973 19.074-46.013 40.628-75.767 72.575-99.606 24.918-16.671 74.048-17.425 65.866-2.3893-12.474 22.923-18.934 33.606-27.598 55.221z" fill="#a00" fill-rule="evenodd"/>
   <path d="m480.14 581.46c-18.803 29.372-29.689 43.131-52.984 72.694-2.2304 34.531 60.685 65.391 85.518 43.131 24.084-43.6 33.91-79.003 32.631-118.84-2.501-29.876-32.542-68.759-39.197-52.988-10.146 24.044-14.471 35.755-25.969 56.006z" fill="#a00" fill-rule="evenodd"/>
   <path d="m245.14 541.52c-16.331 2.9276-33.283 1.0706-48.861-6.4317-14.729-7.0936-26.31-18.301-34.198-31.836-3.1803 6.5191-6.2569 13.416-9.2811 20.712-1.9214 33.294 61.446 63.256 87.054 39.983 1.9643-8.3787 3.6628-15.669 5.2862-22.428z" fill="#500" fill-rule="evenodd"/>
   <path d="m441.38 636.03c7.8929 14.594 19.914 26.69 35.491 34.193 14.729 7.0936 30.712 9.1606 46.212 6.8903-3.1142 6.5509-6.5888 13.257-10.407 20.169-24.833 22.259-87.766-8.6056-85.536-43.137 5.3263-6.7595 9.9677-12.633 14.239-18.116z" fill="#500" fill-rule="evenodd"/>
   <path d="m265.95 598.4c-4.9979 10.114-9.779 21.176-14.389 33.479-0.64322 27.731 29.693 54.462 61.143 63.681 3.2256 0.94553 6.4748 1.7157 9.6918 2.2743 16.889 2.9326 33.216 0.31487 44.319-10.497 1.0428-1.7012 2.0514-3.41 3.0414-5.0908 5.4658-9.2803 10.121-18.242 14.121-27.017-22.502 3.9518-46.216 1.2244-68.136-9.3327-21.935-10.564-38.853-27.423-49.791-47.496z" fill="#500" fill-rule="evenodd"/>
   <path transform="matrix(.85354 .41107 -.41107 .85354 152.31 149.6)" d="m425.71 160.22c0 22.486-18.228 40.714-40.714 40.714s-40.714-18.228-40.714-40.714 18.228-40.714 40.714-40.714 40.714 18.228 40.714 40.714z" fill="#333"/>
   <g transform="matrix(1.4743 .71002 -.71002 1.4743 282.52 -711.96)" fill="#fff" font-family="Sans" font-size="40" letter-spacing="0" word-spacing="0">
    <path d="m371.54 612.91h6.4453v-22.246l-7.0117 1.4062v-3.5938l6.9727-1.4062h3.9453v25.84h6.4453v3.3203h-16.797v-3.3203" fill="#3771c8"/>
   </g>
   <path transform="matrix(1.2464 .60025 -.5401 1.1215 -34.248 -545.19)" d="m661.65 455.87c0 33.195-26.91 60.104-60.104 60.104s-60.104-26.91-60.104-60.104 26.91-60.104 60.104-60.104 60.104 26.91 60.104 60.104z" fill="#333" fill-rule="evenodd"/>
   <path transform="matrix(.90096 .4339 -.40501 .84096 115.14 -314.68)" d="m661.65 455.87c0 33.195-26.91 60.104-60.104 60.104s-60.104-26.91-60.104-60.104 26.91-60.104 60.104-60.104 60.104 26.91 60.104 60.104z" fill="#1a1a1a" fill-rule="evenodd"/>
   <path transform="matrix(.90096 .4339 -.39598 .82222 103.9 -309.77)" d="m661.65 455.87c0 33.195-26.91 60.104-60.104 60.104s-60.104-26.91-60.104-60.104 26.91-60.104 60.104-60.104 60.104 26.91 60.104 60.104z" fill="#666" fill-rule="evenodd"/>
   <path transform="matrix(.90096 .4339 -.39042 .81067 104.9 -302.63)" d="m661.65 455.87c0 33.195-26.91 60.104-60.104 60.104s-60.104-26.91-60.104-60.104 26.91-60.104 60.104-60.104 60.104 26.91 60.104 60.104z" fill="#80b3ff" fill-rule="evenodd"/>
   <path d="m512.65 302.6c-6.4506-16.284-27.015-1.2688-19.107 12.17 3.2868 13.75 21.767 29.859 7.4294 43.112-6.1946 2.676-10.53 15.888 0.14639 11.004 10.284-10.736 16-25.968 19.107-40.229 0.29428-9.0842-1.5038-18.977-7.5756-26.057z" fill="#d5e5ff"/>
   <path d="m443.46 328.7c-3.9692-4.9612-6.2254-12.299-13.496-13.284-6.4536 0.27057-8.3842 8.6028-7.861 13.895 0.38212 6.8587 4.6157 12.893 10.663 15.998 4.5196 2.6928 9.4822 4.4962 14.234 6.7185 6.3945-1.9673 5.4757-10.628 2.3237-15.072-1.703-2.9241-3.9202-5.4966-5.8635-8.2559z" fill="#d5e5ff"/>
   <path d="m386.23 492.34c-12.03-3.8421-27.581-0.0708-43.215 13.318-31.573 25.299-56.199 50.525-77.064 92.748-0.62812 1.2711-1.2363 2.5548-1.8576 3.8572-0.57125 1.1973-1.1418 2.3929-1.7075 3.6174-0.1262 0.2729-0.2673 0.54223-0.39323 0.81649-0.42111 0.91813-0.84085 1.8244-1.259 2.7582-0.11107 0.24768-0.21353 0.4968-0.32439 0.74559l-0.1356 0.28155c-0.56283 1.2662-1.1187 2.5452-1.6762 3.8406-0.0705 0.16405-0.13192 0.32767-0.20235 0.4922-0.52915 1.2344-1.0412 2.4934-1.5656 3.7551-0.5896 1.4198-1.1831 2.8622-1.767 4.3171-0.5897 1.4695-1.1809 2.9506-1.7649 4.4569-0.58319 1.5041-1.158 2.9986-1.7357 4.5403-0.0201 0.86657-1e-3 1.721 0.0383 2.5852 0.0781 1.7376 0.25767 3.4415 0.56575 5.1631 0.30643 1.7124 0.73055 3.4226 1.2498 5.111 1.2982 4.2211 3.235 8.3716 5.7041 12.355 0.98765 1.5933 2.0651 3.1633 3.2146 4.7045 0.57474 0.7706 1.1685 1.5237 1.7809 2.2798 1.2249 1.5121 2.5307 2.995 3.8956 4.4428 2.7297 2.8957 5.6977 5.6499 8.8997 8.2402 8e-3 6e-3 0.0203 7e-3 0.0281 0.0136 1.1839 0.9571 2.4086 1.8877 3.6475 2.7972 0.23165-28.942 7.9519-62.028 23.603-94.527 20.877-43.349 51.346-76.315 82.04-92.71z" fill="#2b0000" fill-rule="evenodd" opacity=".38115"/>
   <path d="m287.91 413.66c-11.534-5.3497-43.867-1.8058-62.556 10.697-26.882 20.059-46.399 44.289-63.278 78.888-0.0316 0.0648-0.0633 0.13219-0.0949 0.19709-0.6403 1.3148-1.2643 2.6666-1.8973 4.0116-0.12037 0.25619-0.246 0.50288-0.3661 0.76019-0.4997 1.0685-0.99402 2.1489-1.4895 3.2368-0.61074 1.3443-1.2216 2.7061-1.8264 4.0804-0.44265 1.006-0.88491 2.0165-1.3247 3.0387-0.76475 1.7743-1.5258 3.5622-2.2822 5.387-0.21016 3.6415 0.36829 7.2565 1.5851 10.753 0.17388 0.49949 0.33914 0.97855 0.539 1.4736 1 2.4823 2.343 4.8967 3.937 7.2376 0.52811 0.77554 1.0833 1.5389 1.6693 2.2954l0.342 0.4422c1.0838 1.3665 2.2414 2.679 3.4972 3.9735 7e-3 7e-3 0.0214 7e-3 0.0281 0.0136 2.0764 2.1383 4.3737 4.2004 6.8414 6.1043 3.466 2.6741 7.2671 5.0987 11.274 7.1987 16.029 8.4 35.324 11.679 49.227 5.6716 2.483-1.0726 4.7943-2.4523 6.8851-4.1414 0.41817-0.33784 0.82844-0.6749 1.2286-1.0385 1.9643-8.3787 3.6628-15.669 5.2862-22.428 5.4765-22.799 9.8172-38.851 18.488-64.317 8.6644-21.615 15.136-32.318 27.61-55.241 2.0454-3.7589 0.52101-6.5117-3.3237-8.295z" fill="#2a0000" fill-opacity=".38039" fill-rule="evenodd"/>
   <path d="m492.54 557.23c-3.4761 7.6187-7.1898 15.059-12.402 24.238-14.504 22.656-24.349 36.058-38.76 54.554-1.9364 2.4853-3.9098 5.0014-6.0356 7.7069-2.6704 3.3958-5.1404 6.5208-8.2039 10.409-0.0349 0.53955-0.0426 1.0705-0.046 1.608-0.0171 2.6878 0.34517 5.3551 1.0546 7.9652 0.1438 0.52908 0.31354 1.0615 0.48476 1.5862 0.16664 0.51072 0.32002 1.0237 0.51188 1.5299 3e-3 7e-3 0.0255 7e-3 0.0282 0.0136 0.19208 0.5058 0.37883 0.99975 0.59531 1.5007 0.2223 0.51543 0.47415 1.0169 0.72148 1.5268 0.24394 0.50278 0.46757 1.0016 0.73505 1.4986 4e-3 7e-3 0.0242 6e-3 0.0282 0.0136 0.2638 0.48945 0.53261 0.98593 0.81848 1.4694 0.51188 0.86714 1.0657 1.7152 1.6453 2.5613 10.852-10.949 22.9-27.156 33.766-46.345 16.242-28.683 25.432-56.193 25.058-71.836z" fill="#290000" fill-opacity=".1451" fill-rule="evenodd"/>
   <path d="m610.36 149c-0.76525 19.722 0.24635 32.285-27.553 60.87 22.129-34.918 8.3532-105.7 14.817-100.43 9.9419 1.4148 13.536 18.938 12.736 39.564z" fill="#fff" opacity=".21311"/>
   <path d="m496.06 257.24c-40.003-16.101-84.569-1.715-101.68 33.822-17.127 35.563-0.5518 79.409 37.035 100.63-31.348-24.153-44.131-63.931-28.448-96.494 15.67-32.537 54.699-47.363 93.097-37.958z" fill="#2b2b2b" fill-rule="evenodd"/>
   <path transform="translate(19.881 -14.821)" d="m512.86 578.79c0 10.651-3.198 19.286-7.1429 19.286s-7.1428-8.6345-7.1428-19.286 3.198-19.286 7.1428-19.286 7.1429 8.6345 7.1429 19.286z" fill="#fff" opacity=".21311"/>
   <path transform="matrix(1.2995 .6087 -.64828 1.2201 96.889 -483.62)" d="m512.86 578.79c0 10.651-3.198 19.286-7.1429 19.286s-7.1428-8.6345-7.1428-19.286 3.198-19.286 7.1428-19.286 7.1429 8.6345 7.1429 19.286z" fill="#fff" opacity=".21311"/>
  </g>
 </g>
</svg>
