<svg width="445" height="546" viewBox="0 0 445 546" fill="none" xmlns="http://www.w3.org/2000/svg">
<g clip-path="url(#clip0)">
<path d="M176.356 395.342C177.117 401.175 178.81 407.113 176.883 412.887C175.835 419.662 171.513 425.235 169.683 431.788C165.758 438.126 168.915 445.57 169.309 452.359C170.359 456.466 172.858 454.9 170.515 451.706C167.852 445.24 164.703 437.41 157.026 435.351C152.043 433.686 146.59 432.407 143.111 428.175C137.172 422.553 134.315 414.89 132.467 407.289C131.83 403.497 128.604 396.691 131.569 394.536C135.836 398.243 141.736 396.919 146.864 397.323C152.747 397.117 158.355 395.482 164.037 394.345C167.987 394.538 173.194 391.823 176.282 394.166L176.356 395.342L176.356 395.342Z" fill="#FFCC00"/>
<path opacity="0.5123" d="M173.101 393.039C174.555 399.349 177.707 405.955 175.588 412.391C174.497 415.683 171.497 417.806 170.265 421.04C167.246 427.404 167.186 434.783 168.317 441.709C167.225 447.123 172.544 451.047 173.349 456.107C173.583 457.44 172.761 459.369 172.323 457.032C170.761 451.731 172.986 445.485 169.149 440.836C163.115 436.773 155.233 441.396 149.264 437.051C142.76 433.326 135.952 428.384 133.82 420.859C131.833 415.107 133.096 409.019 135.007 403.535C136.023 400.813 136.716 397.94 137.842 395.283C141.204 389.942 147.954 388.396 153.916 387.818C156.79 387.206 159.609 388.039 162.216 389.366C165.714 390.933 169.234 392.754 173.101 393.039L173.101 393.039Z" fill="#FFFF00"/>
<path opacity="0.5123" d="M171.154 392.845C171.939 397.243 174.111 401.892 172.192 406.253C171.39 408.771 170.348 411.236 168.872 413.458C167.568 415.639 165.875 417.598 164.688 419.837C162.362 425.55 163.98 432.147 167.28 437.284C167.543 437.995 168.522 439.37 167.789 437.716C166.784 435.708 165.989 433.23 163.873 432.064C158.815 429.256 152.295 430.292 147.665 426.557C143.878 424.711 142.309 420.415 142.289 416.568C142.198 413.354 143.019 410.226 143.238 407.036C143.546 404.342 144.438 401.075 147.458 400.235C150.329 399.676 153.321 399.835 156.22 399.395C158.823 398.901 161.811 399.024 164.069 397.638C165.877 396.077 166.577 393.234 169.117 392.554C169.803 392.423 170.517 392.575 171.154 392.844L171.154 392.845Z" fill="#E4ADAD"/>
<path opacity="0.5123" d="M169.791 394.254C170.595 399.092 172.679 404.241 170.643 409.004C169.17 412.483 167.014 415.64 164.897 418.768C162.616 421.816 160.673 425.395 161.061 429.318C161.044 433.603 162.052 437.913 164.269 441.681C162.941 439.37 162.178 436.793 160.566 434.613C159.394 432.651 157.481 431.572 156.254 429.544C154.016 426.721 151.862 423.101 147.945 422.426C141.296 420.453 146.971 412.466 140.508 409.932C137.347 408.626 128.993 406.772 128.198 403.469C127.164 400.27 120.114 402.724 119.516 399.456C119.233 396.72 120.876 393.249 124.131 393.4C128.242 393.335 132.375 393.537 136.496 393.562C144.73 393.387 153.146 394.618 161.211 392.655C164.172 392.259 166.94 393.726 169.79 394.255L169.791 394.254Z" fill="#FF6600"/>
<path d="M153.06 394.094C154.215 397.261 158.258 397.281 160.73 399.017C163.803 400.234 163.95 403.592 164.556 406.271C165.707 410.143 161.761 412.538 160.032 415.483C158.473 418.566 160.369 422.317 162.083 425.005C162.988 428.481 165.091 432.414 162.595 435.678C162.936 435.745 164.429 429.828 161.607 428.696C158.597 427.663 154.752 430.417 152.55 426.833C149.932 424.403 148.906 420.964 147.216 417.951C145.483 413.692 144.33 409.094 144.249 404.547C144.84 401.353 145.954 398.196 147.523 395.351C149.1 392.814 152.957 397.641 154.188 395.405C153.834 394.95 153.4 394.562 153.06 394.095L153.06 394.094Z" fill="#E4ADAD"/>
<path d="M325.605 365.132C327.38 370.762 328.342 376.83 332.567 381.418C336.408 387.247 342.755 390.772 347.222 396.11C353.528 400.482 353.78 408.469 356.299 414.841C357.076 418.994 354.109 418.475 354.911 414.685C354.619 407.777 354.196 399.438 360.392 394.73C364.275 391.373 368.753 388.198 370.161 383.039C373.245 375.702 372.623 367.623 371.099 359.973C370.075 356.261 370.157 348.834 366.512 347.946C364.156 352.913 358.16 353.865 353.609 356.118C348.103 358.09 342.244 358.65 336.528 359.693C332.971 361.321 327.024 360.742 325.174 364.026L325.605 365.132L325.605 365.132Z" fill="#FFCC00"/>
<path opacity="0.5123" d="M327.617 361.822C328.957 368.144 328.858 375.361 333.543 380.487C335.946 383.107 339.611 383.952 342.119 386.466C347.602 391.197 350.791 397.944 352.69 404.713C355.995 409.278 352.762 414.831 354.169 419.768C354.519 421.077 356.096 422.545 355.507 420.24C354.695 414.804 349.993 409.891 351.553 404.217C355.386 398.274 364.609 399.621 368.262 393.443C372.672 387.638 376.844 380.605 375.613 372.919C375.001 366.912 371.252 361.791 367.163 357.462C365.072 355.338 363.213 352.956 361.048 350.933C355.683 347.267 348.809 348.329 343.072 349.987C340.164 350.481 337.922 352.28 336.084 354.455C333.526 357.177 331.058 360.14 327.617 361.822L327.617 361.822Z" fill="#FFFF00"/>
<path opacity="0.5123" d="M329.323 360.917C330.466 365.24 330.439 370.301 334.059 373.597C335.866 375.612 337.871 377.49 340.174 378.986C342.301 380.508 344.692 381.682 346.736 383.301C351.303 387.687 352.613 394.331 351.755 400.255C351.814 401.003 351.497 402.625 351.469 400.838C351.543 398.627 351.222 396.063 352.676 394.216C356.143 389.784 362.588 388.339 365.266 383.213C367.971 380.129 367.592 375.613 365.978 372.077C364.697 369.096 362.613 366.528 361.057 363.683C359.63 361.324 357.422 358.655 354.283 358.994C351.402 359.535 348.714 360.781 345.857 361.441C343.25 361.944 340.551 363.154 337.882 362.712C335.555 361.944 333.703 359.594 331.075 359.903C330.388 360.034 329.795 360.436 329.322 360.917L329.323 360.917Z" fill="#E4ADAD"/>
<path opacity="0.5123" d="M331.164 361.738C332.476 366.469 332.742 371.956 336.637 375.575C339.469 378.224 342.794 380.327 346.07 382.419C349.464 384.376 352.771 386.944 354.078 390.684C355.912 394.607 356.813 398.929 356.37 403.198C356.612 400.592 356.221 397.949 356.78 395.358C357.027 393.128 358.331 391.436 358.6 389.127C359.463 385.716 359.91 381.605 363.231 379.548C368.515 375.298 359.901 370.057 364.777 365.361C367.133 363.002 374.039 358.235 373.369 354.914C372.964 351.602 380.496 351.263 379.66 348.047C378.76 345.435 375.775 342.855 372.842 344.188C369.029 345.639 365.309 347.341 361.525 348.878C353.87 351.74 346.643 355.959 338.385 357.121C335.491 357.845 333.564 360.207 331.164 361.738L331.164 361.738Z" fill="#FF6600"/>
<path d="M346.5 355.415C346.781 358.745 343.064 360.248 341.525 362.748C339.21 364.993 340.502 368.128 341.082 370.808C341.666 374.784 346.32 375.533 349.164 377.6C351.91 379.857 351.758 383.995 351.32 387.091C351.964 390.612 351.697 394.993 355.383 397.072C355.098 397.259 351.208 392.377 353.328 390.303C355.661 388.25 360.375 389.366 360.88 385.268C362.26 382.077 361.743 378.546 362.021 375.16C361.807 370.616 360.916 365.973 359.059 361.771C357.157 359.059 354.789 356.57 352.135 354.536C349.604 352.787 348.102 358.632 346.018 357.032C346.15 356.485 346.386 355.969 346.5 355.415L346.5 355.415Z" fill="#E4ADAD"/>
<path opacity="0.5123" d="M194.595 367.812C199.098 389.685 200.502 414.509 212.743 432.494C221.645 445.65 231.984 456.562 242.177 467.4C252.712 477.685 263.049 490.68 267.429 508.089C273.432 526.546 276.64 546.403 275.755 565.433C276.21 553.801 274.735 541.731 276.155 530.304C276.665 520.372 280.445 513.319 281.015 503.034C283.271 488.051 284.186 469.734 294.061 461.908C309.676 445.06 282.907 417.729 297.228 398.694C304.14 389.094 324.627 370.619 322.231 355.375C320.64 340.285 343.513 342.024 340.621 327.179C337.601 315.024 328.242 302.115 319.465 306.847C308.025 311.728 296.894 317.781 285.551 323.061C262.575 332.633 241.052 348.5 216.059 350.153C207.334 352.157 201.731 361.958 194.596 367.813L194.595 367.812Z" fill="#FF6600"/>
<path d="M240.551 346.076C241.769 361.183 230.63 366.333 226.222 376.918C219.429 386.018 223.699 400.688 225.756 413.001C227.968 431.146 242.203 436.534 251.08 447.07C259.678 458.417 259.666 476.973 258.674 490.712C261.017 506.841 260.684 526.438 272.122 537.391C271.276 538.109 258.912 514.456 265.13 506.038C272.004 497.812 286.46 504.875 287.55 486.655C291.397 472.893 289.439 456.776 289.913 441.661C288.767 421.118 285.549 399.837 279.441 380.122C273.36 367.09 265.887 354.866 257.593 344.56C249.704 335.592 245.774 361.246 239.261 353.143C239.602 350.736 240.263 348.52 240.551 346.076L240.551 346.076Z" fill="#E4ADAD"/>
<path d="M287.167 415.317C286.265 422.069 286.404 429.097 282.42 435.33C279.143 442.847 272.457 448.45 268.347 455.583C261.885 462.12 263.254 471.105 261.636 478.88C261.592 483.722 264.953 482.364 263.225 478.342C262.128 470.552 260.887 461.13 252.663 457.499C247.424 454.771 241.527 452.401 238.807 447.009C233.674 439.626 232.719 430.443 232.907 421.5C233.331 417.087 231.688 408.815 235.765 406.867C239.554 411.795 246.762 411.284 252.552 412.605C259.399 413.361 266.366 412.448 273.265 412.112C277.762 412.996 284.595 410.788 287.441 413.969L287.167 415.317L287.167 415.317Z" fill="#FFCC00"/>
<path opacity="0.5123" d="M284.118 412.163C283.869 419.572 285.489 427.603 281.081 434.554C278.817 438.109 274.71 440.014 272.301 443.478C266.877 450.197 264.556 458.566 263.747 466.62C260.834 472.583 265.771 477.934 265.156 483.815C265.019 485.368 263.482 487.42 263.69 484.693C263.506 478.411 267.979 471.693 264.972 465.768C259.253 460.139 248.75 464.062 243.191 458.123C236.827 452.799 230.482 446.042 230.319 437.139C229.783 430.273 233.098 423.572 236.976 417.667C238.978 414.748 240.655 411.602 242.764 408.775C248.272 403.276 256.53 402.658 263.583 403.005C267.085 402.793 270.082 404.214 272.684 406.159C276.241 408.528 279.745 411.188 284.118 412.163L284.118 412.163Z" fill="#FFFF00"/>
<path opacity="0.5123" d="M281.914 411.61C281.478 416.737 282.563 422.382 279.018 427.012C277.325 429.736 275.372 432.36 272.991 434.635C270.821 436.893 268.271 438.832 266.218 441.176C261.792 447.272 261.644 455.036 263.882 461.424C263.968 462.276 264.677 464.003 264.336 462.001C263.79 459.551 263.631 456.604 261.547 454.923C256.571 450.884 248.735 450.963 244.536 445.943C240.732 443.21 240.235 438.067 241.385 433.695C242.263 430.029 244.164 426.616 245.391 423.03C246.568 420.022 248.593 416.462 252.333 416.016C255.814 415.864 259.216 416.549 262.694 416.536C265.846 416.414 269.254 417.056 272.281 415.861C274.843 414.393 276.518 411.283 279.655 410.938C280.485 410.904 281.262 411.197 281.915 411.61L281.914 411.61Z" fill="#E4ADAD"/>
<path opacity="0.5123" d="M279.908 412.988C279.358 418.618 280.187 424.818 276.385 429.886C273.625 433.59 270.175 436.814 266.78 440.013C263.218 443.092 259.886 446.83 259.136 451.352C257.807 456.217 257.653 461.283 259.058 465.935C258.233 463.087 258.14 460.032 256.948 457.284C256.196 454.858 254.32 453.311 253.525 450.801C251.806 447.219 250.429 442.744 246.119 441.318C239.057 437.961 248.038 429.84 241.362 425.876C238.116 423.861 229.051 420.351 229.143 416.465C228.928 412.659 220.052 414.261 220.361 410.449C220.87 407.293 223.823 403.626 227.53 404.344C232.289 404.962 236.993 405.885 241.736 406.607C251.282 407.791 260.608 410.604 270.505 409.73C274.039 409.777 276.783 411.909 279.907 412.988L279.908 412.988Z" fill="#FF6600"/>
<path d="M260.658 410C261.026 413.79 265.685 414.494 268.007 416.881C271.182 418.78 270.327 422.617 270.209 425.76C270.356 430.35 265.071 432.404 262.178 435.455C259.438 438.693 260.481 443.27 261.639 446.61C261.623 450.709 262.849 455.527 258.974 458.812C259.346 458.946 262.874 452.481 259.963 450.72C256.806 449.04 251.528 451.519 250.081 447.079C247.801 443.879 247.667 439.802 246.635 436.097C245.936 430.97 246.008 425.556 247.302 420.38C248.959 416.855 251.207 413.459 253.886 410.494C256.48 407.879 259.458 414.009 261.56 411.678C261.291 411.102 260.908 410.589 260.658 410L260.658 410Z" fill="#E4ADAD"/>
<path fill-rule="evenodd" clip-rule="evenodd" d="M156.734 10.9843C154.24 12.9132 151.868 15.2807 149.657 18.0901C148.772 19.2139 147.905 20.4115 147.072 21.6757C145.405 24.2041 143.84 27.018 142.4 30.1066C141.32 32.423 140.321 34.8885 139.383 37.519C136.255 46.2873 133.932 56.8036 132.663 69.0408C132.468 70.5291 132.29 72.049 132.117 73.5864C131.983 74.7846 131.862 75.9926 131.741 77.2193C131.623 78.411 131.504 79.6103 131.398 80.8278L131.338 81.4817C131.298 81.95 131.271 82.4343 131.233 82.9063C131.228 82.9735 131.212 83.0368 131.206 83.1042L131.123 84.2584C131.059 85.0899 130.989 85.9224 130.93 86.7646L130.84 88.0763L130.825 88.1893C130.779 88.8887 130.758 89.5974 130.715 90.3038C130.673 91.0102 130.612 91.7214 130.572 92.4427C130.528 93.2416 130.505 94.0526 130.466 94.8598L130.388 96.5182L130.38 96.5747L130.373 96.6313L130.3 98.3624L130.263 99.1774C130.259 99.2884 130.267 99.3972 130.263 99.5082L130.17 102.042C130.152 102.584 130.129 103.115 130.113 103.66C130.107 103.857 130.113 104.052 130.107 104.249C130.099 104.551 130.096 104.85 130.088 105.153C130.087 105.196 130.086 105.239 130.085 105.282C130.052 106.539 130.009 107.794 129.985 109.067L129.982 109.526C129.929 112.471 129.896 115.471 129.89 118.491L129.894 118.894C129.894 119.055 129.887 119.221 129.887 119.382C129.885 122.107 129.903 124.855 129.937 127.632C129.963 129.774 130.004 131.936 130.05 134.105C130.068 134.94 130.103 135.78 130.124 136.618L130.139 137.268C130.208 139.986 130.289 142.72 130.388 145.471C130.476 147.908 130.584 150.362 130.694 152.82L130.802 155.409C130.813 155.632 130.819 155.851 130.83 156.074C130.985 159.26 131.147 162.455 131.336 165.664C131.537 169.06 131.758 172.468 131.995 175.878C132.071 176.978 132.164 178.077 132.244 179.177C132.426 181.683 132.61 184.183 132.81 186.689C132.855 187.247 132.908 187.804 132.954 188.362C133.194 191.317 133.429 194.274 133.693 197.221C133.779 198.175 133.87 199.122 133.958 200.075C134.158 202.247 134.376 204.412 134.588 206.574C134.768 208.412 134.944 210.24 135.132 212.069L135.537 215.964C135.748 217.942 135.954 219.91 136.173 221.874C136.398 223.882 136.64 225.874 136.873 227.864C136.973 228.723 137.074 229.581 137.176 230.436C137.504 233.184 137.845 235.906 138.187 238.611C138.266 239.235 138.328 239.861 138.408 240.482C138.735 243.032 139.073 245.546 139.412 248.052L139.725 250.337C140.102 253.084 140.484 255.805 140.873 258.487L141.063 259.821L141.188 260.643C141.607 263.486 142.034 266.298 142.464 269.055C142.915 271.94 143.372 274.77 143.833 277.55C144.082 279.055 144.33 280.508 144.582 281.979C144.868 283.651 145.148 285.314 145.437 286.94C145.476 287.16 145.517 287.37 145.556 287.589C145.793 288.914 146.036 290.189 146.274 291.482C146.01 291.442 145.741 291.425 145.449 291.43C144.995 291.438 144.514 291.503 143.997 291.612L143.98 291.624C143.726 291.678 143.463 291.745 143.195 291.823C143.106 291.849 143.008 291.872 142.917 291.901C142.851 291.922 142.78 291.953 142.714 291.975C142.41 292.075 142.094 292.183 141.776 292.311L141.478 292.43C140.884 292.681 140.28 292.987 139.646 293.324C139.331 293.492 139.005 293.671 138.682 293.858C137.598 294.488 136.468 295.226 135.319 296.061C132.057 298.433 128.6 301.566 125.448 305.128C124.266 306.463 123.145 307.864 122.07 309.299C121.976 309.424 121.874 309.539 121.782 309.664C121.081 310.615 120.417 311.585 119.782 312.564L119.29 313.334C119.023 313.762 118.757 314.194 118.505 314.625L118.464 314.706C117.892 315.689 117.355 316.667 116.872 317.661C116.713 317.988 116.574 318.324 116.425 318.652C116.319 318.885 116.221 319.125 116.12 319.359C116.028 319.573 115.927 319.785 115.84 319.998C115.63 320.514 115.425 321.016 115.245 321.531C115.008 322.34 114.808 323.14 114.588 323.947C114.276 325.093 113.967 326.238 113.689 327.381C113.545 327.976 113.402 328.573 113.267 329.167C113.235 329.307 113.211 329.447 113.18 329.587C112.919 330.752 112.678 331.907 112.452 333.073C112.403 333.326 112.366 333.579 112.319 333.832C112.12 334.897 111.92 335.955 111.75 337.022L111.739 337.107C111.567 338.193 111.403 339.292 111.263 340.382C111.207 340.811 111.153 341.24 111.102 341.669C110.984 342.666 110.89 343.663 110.798 344.664L110.706 345.774C110.634 346.648 110.563 347.531 110.51 348.41C110.496 348.642 110.472 348.875 110.459 349.108C110.411 350.002 110.388 350.899 110.36 351.799C110.337 352.523 110.311 353.25 110.301 353.978L110.298 354.438C110.271 357.187 110.354 359.973 110.511 362.795C110.542 363.349 110.558 363.903 110.596 364.461C110.618 364.781 110.649 365.099 110.673 365.42C110.719 366.025 110.773 366.63 110.827 367.239C110.938 368.501 111.051 369.776 111.198 371.057L111.331 372.153C111.396 372.685 111.473 373.214 111.544 373.749C111.673 374.722 111.815 375.682 111.964 376.668C112.315 378.992 112.704 381.359 113.167 383.76L113.273 384.292C113.436 385.124 113.603 385.948 113.779 386.79L113.806 386.923L113.828 386.984C114.019 387.889 114.214 388.806 114.42 389.723C114.619 390.605 114.824 391.5 115.037 392.394L115.067 392.499L115.382 393.792C115.506 394.3 115.624 394.812 115.753 395.323C115.926 396.012 116.106 396.696 116.288 397.393C116.355 397.65 116.428 397.896 116.496 398.154C116.748 399.114 116.992 400.07 117.261 401.046C117.263 401.052 117.272 401.056 117.274 401.062C117.453 401.317 117.648 401.569 117.84 401.813L117.878 401.861C118.038 402.062 118.208 402.266 118.376 402.459C118.545 402.653 118.727 402.844 118.908 403.033C118.926 403.053 118.94 403.078 118.958 403.097C119.016 403.157 119.069 403.219 119.127 403.278C119.161 403.312 119.198 403.344 119.232 403.378C119.237 403.383 119.24 403.39 119.245 403.394C119.26 403.409 119.284 403.416 119.3 403.43C119.358 403.488 119.409 403.553 119.468 403.61C119.569 403.706 119.669 403.801 119.771 403.895C120.093 404.19 120.411 404.47 120.755 404.745L120.823 404.797C120.828 404.801 120.83 404.808 120.835 404.813C121.003 404.945 121.175 405.069 121.348 405.197L121.591 405.373C121.627 405.399 121.664 405.42 121.7 405.445C121.948 405.62 122.206 405.783 122.464 405.949C122.469 405.952 122.471 405.961 122.477 405.965C122.771 406.154 123.047 406.336 123.353 406.512C123.66 406.689 123.978 406.847 124.296 407.011C124.589 407.162 124.885 407.305 125.188 407.445L125.355 407.525C125.633 407.651 125.912 407.778 126.197 407.895C126.257 407.92 126.32 407.938 126.381 407.962L126.452 407.986C126.705 408.087 126.956 408.193 127.213 408.288C127.242 408.299 127.268 408.317 127.297 408.328C127.649 408.456 128.002 408.568 128.363 408.685C128.86 408.846 129.363 409.005 129.876 409.144C129.977 409.171 130.075 409.2 130.177 409.227L130.536 409.317L130.565 409.321L131.083 409.447C132.016 409.662 132.982 409.825 133.955 409.97L134.013 409.978C134.413 410.037 134.789 410.101 135.194 410.149L135.503 410.175C135.885 410.217 136.276 410.253 136.662 410.285C136.94 410.309 137.22 410.334 137.5 410.353L137.942 410.382L138.784 410.422C139.226 410.437 139.671 410.451 140.117 410.454C140.741 410.458 141.365 410.434 141.995 410.415L142.099 410.414C142.417 410.404 142.738 410.384 143.057 410.368L144.135 410.309L144.21 410.304C145.803 410.188 147.403 410.004 148.998 409.743C149.814 409.61 150.628 409.459 151.438 409.289C151.469 409.283 151.499 409.279 151.53 409.272L151.546 409.26C151.931 409.179 152.314 409.085 152.697 408.995C153.065 408.909 153.437 408.832 153.802 408.738L154.048 408.685C154.277 408.625 154.5 408.549 154.729 408.487L155.007 408.409C155.207 408.353 155.409 408.302 155.609 408.244L155.796 408.182L156.153 408.071C156.274 408.034 156.401 408.014 156.522 407.976L156.539 407.964C156.783 407.888 157.027 407.809 157.269 407.729C157.768 407.567 158.26 407.397 158.751 407.22L159.112 407.081C159.147 407.068 159.185 407.065 159.22 407.052C159.813 406.832 160.386 406.588 160.966 406.348C161.217 406.244 161.472 406.152 161.72 406.045L161.973 405.934C162.545 405.683 163.113 405.436 163.668 405.166C163.939 405.034 164.201 404.89 164.468 404.754L164.692 404.639C165.057 404.45 165.424 404.262 165.781 404.064C166.849 403.471 167.883 402.837 168.863 402.17L169.193 401.926L169.338 401.844L169.818 401.49C170.133 401.26 170.443 401.017 170.747 400.779L171.197 400.421C171.645 400.058 172.073 399.693 172.493 399.312C172.773 399.058 173.059 398.807 173.326 398.545C173.528 398.347 173.72 398.135 173.915 397.933L174.175 397.665L174.211 397.612L174.261 397.575L174.841 396.918L175.194 396.505C175.307 396.368 175.41 396.226 175.519 396.087L175.536 396.075C175.756 395.796 175.966 395.511 176.172 395.224L176.336 395.002C176.49 394.781 176.638 394.566 176.783 394.341L176.856 394.236C177.023 393.975 177.181 393.717 177.335 393.45C177.51 393.148 177.676 392.833 177.833 392.524L177.955 392.281L177.984 392.184C177.997 392.157 178.011 392.13 178.024 392.103L178.126 391.901L178.289 391.577C178.568 390.947 178.807 390.3 179.013 389.644C179.015 389.64 179.028 389.637 179.03 389.632C179.237 388.971 179.4 388.299 179.528 387.612C177.169 382.539 175.104 378.126 173.221 374.019C173.068 373.685 172.924 373.383 172.773 373.053L172.568 372.595L171.437 370.1C171.739 370.431 172.05 370.751 172.36 371.071C172.417 371.131 172.471 371.193 172.529 371.252C173.015 371.75 173.519 372.242 174.023 372.715C174.095 372.781 174.163 372.849 174.234 372.915C174.729 373.373 175.221 373.815 175.732 374.25C176.005 374.482 176.282 374.709 176.56 374.935C176.943 375.246 177.336 375.552 177.728 375.851C177.791 375.899 177.855 375.944 177.917 375.992C178.519 376.447 179.106 376.897 179.727 377.324C179.757 377.345 179.793 377.359 179.824 377.38C181.045 378.216 182.302 379.003 183.59 379.734C183.747 379.822 183.902 379.91 184.06 379.997C184.694 380.349 185.354 380.675 186.004 381.002C186.051 381.026 186.095 381.054 186.142 381.078C192.122 384.07 198.706 386.058 205.546 387.239C205.652 387.257 205.761 387.263 205.867 387.281L205.894 387.414L206.135 388.913C206.175 389.146 206.223 389.373 206.264 389.607C206.418 390.499 206.573 391.397 206.743 392.302C206.919 393.236 207.115 394.191 207.308 395.139C207.383 395.504 207.468 395.868 207.545 396.235C207.745 397.186 207.947 398.141 208.164 399.107C208.191 399.225 208.208 399.345 208.235 399.462C208.335 399.902 208.441 400.34 208.545 400.783C208.556 400.836 208.555 400.892 208.568 400.945C208.717 401.581 208.864 402.203 209.022 402.846C209.024 402.852 209.033 402.856 209.035 402.862C209.075 403.026 209.12 403.188 209.161 403.353C209.162 403.362 209.155 403.373 209.157 403.382L209.192 403.559C209.408 404.429 209.645 405.298 209.875 406.181L209.95 406.507C209.952 406.514 209.961 406.517 209.962 406.523C210.18 407.352 210.413 408.204 210.644 409.045C210.646 409.051 210.655 409.055 210.657 409.061C210.904 409.958 211.154 410.868 211.416 411.779C211.466 411.953 211.517 412.128 211.567 412.303C211.738 412.891 211.893 413.473 212.07 414.067L212.338 414.936C212.34 414.943 212.349 414.946 212.351 414.953C212.651 415.95 212.944 416.95 213.263 417.965C213.94 418.866 214.691 419.713 215.486 420.517C215.491 420.522 215.494 420.528 215.499 420.533C215.892 420.933 216.311 421.326 216.737 421.704C217.593 422.464 218.504 423.168 219.463 423.833C219.546 423.891 219.624 423.953 219.707 424.01C220.054 424.245 220.413 424.473 220.773 424.697C220.828 424.732 220.88 424.771 220.936 424.805C221.378 425.076 221.827 425.334 222.286 425.588C222.445 425.675 222.611 425.753 222.772 425.839C222.837 425.873 222.899 425.916 222.965 425.951C223.303 426.128 223.649 426.293 223.995 426.461C224.048 426.486 224.093 426.527 224.146 426.553C224.881 426.905 225.65 427.233 226.419 427.544C226.771 427.685 227.119 427.824 227.477 427.957C227.483 427.959 227.484 427.971 227.49 427.973C228.659 428.406 229.861 428.782 231.094 429.125C231.71 429.297 232.33 429.453 232.961 429.602C234.222 429.901 235.517 430.147 236.826 430.358C238.79 430.675 240.792 430.91 242.828 431.036L242.844 431.024C243.518 431.065 244.202 431.1 244.882 431.121L244.899 431.108C245.175 431.117 245.452 431.127 245.728 431.132L245.757 431.136C246.134 431.141 246.508 431.142 246.886 431.141C246.95 431.141 247.014 431.152 247.078 431.152L247.957 431.139C249.005 431.122 250.056 431.086 251.109 431.023C252.499 430.94 253.902 430.819 255.291 430.655C260.847 429.999 266.343 428.704 271.436 426.819C273.525 426.046 275.544 425.162 277.471 424.193C280.634 422.603 283.559 420.765 286.116 418.675C287.139 417.84 288.114 416.965 289.016 416.052C293.074 411.944 295.841 407.064 296.677 401.5C296.539 400.218 296.373 398.949 296.215 397.699C296.105 396.836 295.984 395.983 295.866 395.135C295.747 394.287 295.623 393.444 295.496 392.612L295.178 390.585L295.106 390.129C294.748 387.982 294.364 385.878 293.945 383.819L293.756 382.916C293.588 382.111 293.411 381.325 293.234 380.531L292.989 379.492C292.898 379.095 292.815 378.685 292.722 378.291C292.245 376.285 291.742 374.324 291.207 372.395C302.026 366.417 310.936 358.184 315.338 346.497C315.323 348.37 315.286 350.26 315.261 352.299L315.151 360.843C315.352 361.134 315.561 361.425 315.777 361.703C316.53 362.669 317.386 363.546 318.314 364.354C318.388 364.417 318.451 364.492 318.525 364.554C318.591 364.609 318.66 364.656 318.727 364.711C318.793 364.765 318.84 364.814 318.9 364.862C319.12 365.04 319.344 365.213 319.572 365.383C320.145 365.809 320.733 366.207 321.355 366.582L321.385 366.586C321.691 366.771 321.989 366.952 322.307 367.125C322.634 367.303 322.97 367.466 323.308 367.632C323.641 367.795 323.97 367.959 324.313 368.11C324.656 368.261 325.002 368.396 325.355 368.535C325.666 368.658 325.97 368.777 326.288 368.889C327.777 369.42 329.341 369.835 330.959 370.168C330.964 370.169 330.967 370.183 330.972 370.184C332.534 370.504 334.136 370.735 335.782 370.877L335.799 370.865C336.206 370.9 336.621 370.946 337.033 370.971L337.049 370.958C337.461 370.983 337.889 371.01 338.304 371.024C339.564 371.066 340.832 371.062 342.111 371.009C344.67 370.903 347.251 370.607 349.795 370.14C350.643 369.984 351.481 369.819 352.318 369.625C353.992 369.237 355.631 368.768 357.234 368.232L357.251 368.22C360.05 367.283 362.721 366.134 365.152 364.776C365.848 364.387 366.536 363.971 367.192 363.549C368.504 362.707 369.738 361.808 370.861 360.841C371.422 360.357 371.941 359.852 372.448 359.339C373.463 358.312 374.366 357.223 375.136 356.083C375.522 355.513 375.874 354.935 376.192 354.338C376.986 352.846 377.568 351.28 377.889 349.629C377.729 348.596 377.57 347.57 377.401 346.558L377.285 345.881C377.164 345.167 377.029 344.477 376.904 343.773L376.637 342.242C376.555 341.8 376.469 341.366 376.385 340.928C376.239 340.168 376.087 339.416 375.935 338.668C375.899 338.489 375.866 338.314 375.829 338.136C375.64 337.214 375.435 336.301 375.237 335.396C375.222 335.329 375.22 335.258 375.205 335.191L375.189 335.203C369.829 310.88 361.11 292.623 346.944 275.813C336.719 264.874 315.961 257.483 307.876 259.285C295.731 208.651 272.235 140.866 247.099 86.4824C246.367 84.8992 245.639 83.307 244.905 81.7474C244.524 80.9369 244.144 80.1417 243.762 79.3379C243.407 78.5903 243.056 77.8388 242.7 77.0972C242.248 76.1542 241.797 75.2187 241.344 74.2856C241.053 73.6852 240.763 73.1118 240.471 72.5158C239.429 70.3864 238.404 68.2938 237.361 66.221C236.92 65.3455 236.477 64.4798 236.036 63.6149L235.355 62.2877C234.841 61.2865 234.328 60.2938 233.814 59.3077L233.355 58.427C232.022 55.8828 230.695 53.3866 229.365 50.9515C228.813 49.8992 228.253 48.8841 227.689 47.8674C226.562 45.834 225.413 43.8648 224.242 41.9741C223.067 40.0773 221.875 38.2622 220.662 36.5092C220.057 35.6354 219.455 34.7764 218.842 33.9383C216.999 31.4179 215.124 29.0764 213.22 26.8798C212.587 26.1493 211.965 25.4397 211.326 24.745C209.415 22.6664 207.472 20.7435 205.527 18.9868L205.514 18.9707C204.213 17.7974 202.916 16.7074 201.608 15.678C190.488 6.92509 179.184 3.38656 169.559 5.12678C165.029 5.94575 160.726 7.89786 156.735 10.9842L156.734 10.9843Z" fill="#1A1A1A" stroke="#1A1A1A" stroke-width="5.6511"/>
<path fill-rule="evenodd" clip-rule="evenodd" d="M169.301 5.15567C151.106 8.45042 136.308 29.9343 132.179 69.0727C120.952 153.854 145.454 320.339 159.584 343.973C178.635 376.175 218.526 386.686 252.54 379.436C253.57 379.216 254.61 378.976 255.631 378.723C263.795 376.697 271.616 373.605 278.728 369.488C279.617 368.973 280.488 368.445 281.354 367.899C299.544 356.421 308.526 340.046 316.416 313.661C316.316 264.655 271.922 128.72 229.279 50.8961C211.602 17.2633 187.496 1.86681 169.3 5.1616L169.301 5.15567Z" fill="#3771C8"/>
<path fill-rule="evenodd" clip-rule="evenodd" d="M316.255 303.037C297.245 325.312 269.712 341.747 241 347.418C212.33 353.081 183.347 348.171 156.743 334.956C157.722 338.486 158.714 342.029 159.743 345.616C169.618 391.621 219.343 392.985 253.717 385.662C254.759 385.44 255.81 385.197 256.841 384.942C289.626 377.596 327.479 362.261 317.302 314.824C316.75 310.852 316.792 306.546 316.256 303.034L316.255 303.037Z" fill="#550000"/>
<path fill-rule="evenodd" clip-rule="evenodd" d="M168.114 4.67206C149.96 7.95791 135.195 29.3902 131.078 68.4359C129.503 80.3304 128.631 93.8473 128.338 108.343C146.455 119.08 169.067 123.465 192.011 118.935C214.674 114.46 233.467 102.124 245.699 85.7045C239.835 73.049 233.882 61.1139 227.962 50.3128C210.322 16.7583 186.269 1.38634 168.115 4.67318L168.114 4.67206Z" fill="#808080"/>
<path opacity="0.36885" fill-rule="evenodd" clip-rule="evenodd" d="M169.432 4.98184C151.237 8.27665 136.438 29.7608 132.309 68.8997C122.093 146.051 141.455 290.846 155.676 334.098C155.587 334.054 155.501 334.009 155.412 333.965C156.396 337.51 157.382 341.07 158.415 344.672C165.38 377.12 192.094 387.426 219.339 388.154C200.947 349.372 188.011 303.243 172.737 245.719C147.967 137.7 141.478 38.0832 169.431 4.98402L169.432 4.98184Z" fill="#1C2224"/>
<path fill-rule="evenodd" clip-rule="evenodd" d="M230.838 293.818C222.067 295.857 214.479 304.064 211.388 318.061C203.342 349.42 200.902 376.531 214.096 418.491C225.019 432.96 251.989 434.821 272.437 427.269C274.534 426.494 276.572 425.62 278.508 424.651C288.668 419.56 296.276 411.843 297.781 401.964C297.643 400.685 297.485 399.415 297.328 398.167C292.46 359.468 278.16 335.421 258.898 308.68C250.859 296.463 240.176 291.648 230.839 293.819L230.838 293.818Z" fill="#AA0000"/>
<path fill-rule="evenodd" clip-rule="evenodd" d="M158.209 333.486C165.645 354.785 170.473 365.09 180.79 387.215C176.647 409.128 130.87 418.498 118.375 400.691C109.819 369.677 109.18 346.024 116.456 321.348C122.912 303.086 148.678 283.533 150.44 294.428C153.125 311.038 154.033 319.032 158.209 333.486L158.209 333.486Z" fill="#AA0000"/>
<path fill-rule="evenodd" clip-rule="evenodd" d="M313.85 304.048C315.796 326.47 315.603 337.786 315.24 362.061C328.092 380.654 374.08 371.902 378.23 350.773C373.307 318.985 364.137 296.976 347.262 277.032C333.787 262.678 302.012 254.464 304.886 265.159C309.267 281.463 311.73 289.163 313.851 304.05L313.85 304.048Z" fill="#AA0000"/>
<path fill-rule="evenodd" clip-rule="evenodd" d="M174.744 373.908C167.285 381.76 157.56 387.408 146.276 389.637C135.608 391.744 124.94 390.523 115.285 386.676C116.241 391.245 117.405 395.967 118.758 400.873C131.221 418.635 176.893 409.286 181.026 387.427C178.673 382.38 176.621 377.994 174.744 373.908L174.744 373.908Z" fill="#550000"/>
<path fill-rule="evenodd" clip-rule="evenodd" d="M315.796 347.482C325.88 351.867 337.137 353.37 348.418 351.142C359.084 349.036 368.379 343.873 375.662 336.682C376.666 341.241 377.541 346.019 378.319 351.036C374.186 372.071 328.389 380.789 315.592 362.278C315.675 356.752 315.754 351.945 315.795 347.482L315.796 347.482Z" fill="#550000"/>
<path fill-rule="evenodd" clip-rule="evenodd" d="M208.527 395.989C209.977 403.103 211.925 410.618 214.466 418.7C225.354 433.124 252.238 434.979 272.62 427.45C274.71 426.677 276.742 425.806 278.671 424.84C288.799 419.765 296.383 412.073 297.883 402.225C297.746 400.95 297.588 399.684 297.431 398.44C296.567 391.569 295.403 385.177 293.967 379.135C283.655 389.913 269.997 397.749 254.118 400.885C238.229 404.023 222.446 401.991 208.528 395.989L208.527 395.989Z" fill="#550000"/>
<path d="M249.103 253.19C252.041 266.576 243.098 279.611 229.126 282.305C215.155 284.998 201.448 276.331 198.51 262.945C195.572 249.559 204.516 236.524 218.487 233.83C232.458 231.136 246.165 239.804 249.103 253.19Z" fill="#333333"/>
<path d="M217.659 271.37L224.578 270.041L219.517 247.063L212.31 249.961L211.493 246.249L218.658 243.359L222.893 242.546L228.772 269.236L235.69 267.906L236.446 271.336L218.415 274.8L217.659 271.37" fill="#3771C8"/>
<path fill-rule="evenodd" clip-rule="evenodd" d="M258.67 165.662C264.366 191.611 244.583 217.351 214.485 223.155C184.387 228.959 155.369 212.628 149.673 186.68C143.977 160.732 163.76 134.991 193.858 129.187C223.956 123.384 252.974 139.714 258.67 165.662V165.662Z" fill="#333333"/>
<path fill-rule="evenodd" clip-rule="evenodd" d="M246.279 168.67C250.551 188.132 236.372 207.31 214.611 211.506C192.85 215.702 171.745 203.327 167.474 183.865C163.202 164.404 177.38 145.225 199.142 141.029C220.903 136.833 242.007 149.208 246.279 168.67V168.67Z" fill="#1A1A1A"/>
<path fill-rule="evenodd" clip-rule="evenodd" d="M241.06 169.542C245.236 188.568 230.982 207.392 209.224 211.588C187.465 215.783 166.441 203.761 162.265 184.736C158.089 165.71 172.342 146.886 194.101 142.69C215.859 138.495 236.884 150.517 241.06 169.542V169.542Z" fill="#666666"/>
<path fill-rule="evenodd" clip-rule="evenodd" d="M243.673 169.148C247.79 187.905 233.49 206.511 211.734 210.706C189.977 214.901 169.002 203.096 164.885 184.34C160.768 165.583 175.068 146.977 196.824 142.782C218.581 138.587 239.556 150.391 243.673 169.148V169.148Z" fill="#80B3FF"/>
<path d="M216.932 146.757C206.86 140.907 202.017 156.698 211.707 160.513C219.06 166.301 235.472 167.344 233.23 179.787C231.019 183.594 234.091 192.093 237.791 185.393C238.898 175.835 235.739 165.755 231.585 157.197C228.041 152.406 223.052 148.02 216.932 146.757L216.932 146.757Z" fill="#D5E5FF"/>
<path d="M191.342 186.981C187.22 185.988 183.043 183.107 178.783 185.44C175.467 188.097 177.826 193.121 180.253 195.629C183.24 198.996 187.938 200.436 192.409 199.667C195.902 199.283 199.269 198.271 202.694 197.555C205.29 194.052 201.285 189.971 197.807 188.924C195.716 188.09 193.494 187.637 191.342 186.981L191.342 186.981Z" fill="#D5E5FF"/>
<path opacity="0.38115" fill-rule="evenodd" clip-rule="evenodd" d="M228.992 294.238C221.04 296.966 214.311 304.974 211.446 317.948C204.952 343.255 202.12 365.812 208.192 395.618C208.375 396.515 208.574 397.411 208.773 398.322C208.956 399.159 209.139 399.995 209.336 400.844C209.379 401.033 209.414 401.227 209.458 401.417C209.608 402.052 209.753 402.681 209.91 403.323C209.952 403.493 209.999 403.661 210.041 403.832L210.083 404.029C210.299 404.899 210.523 405.772 210.754 406.654C210.783 406.766 210.817 406.874 210.846 406.985C211.067 407.825 211.306 408.671 211.54 409.523C211.804 410.481 212.075 411.453 212.356 412.427C212.639 413.411 212.927 414.402 213.229 415.403C213.53 416.402 213.832 417.393 214.152 418.409C214.493 418.862 214.851 419.292 215.223 419.72C215.97 420.581 216.758 421.385 217.621 422.147C218.48 422.906 219.4 423.618 220.362 424.281C222.767 425.939 225.482 427.311 228.413 428.39C229.585 428.821 230.795 429.205 232.032 429.547C232.65 429.718 233.272 429.872 233.904 430.021C235.17 430.318 236.466 430.568 237.779 430.778C240.406 431.197 243.102 431.45 245.855 431.528C245.862 431.528 245.869 431.524 245.876 431.524C246.894 431.553 247.922 431.552 248.95 431.534C237.313 416.599 227.97 396.614 223.079 373.832C216.556 343.445 219.347 314.636 228.992 294.238L228.992 294.238Z" fill="#2B0000"/>
<path fill-rule="evenodd" clip-rule="evenodd" d="M145.3 291.469C137.008 293.228 121.288 307.658 116.445 321.354C110.322 342.118 109.801 362.146 114.888 386.456C114.897 386.502 114.908 386.549 114.918 386.594C115.112 387.518 115.329 388.454 115.539 389.39C115.579 389.568 115.613 389.743 115.653 389.922C115.822 390.664 115.998 391.411 116.177 392.161C116.398 393.088 116.627 394.024 116.864 394.964C117.037 395.653 117.213 396.343 117.395 397.038C117.709 398.245 118.031 399.458 118.37 400.688C119.737 402.636 121.511 404.262 123.576 405.579C123.871 405.767 124.153 405.948 124.46 406.124C125.999 407.005 127.691 407.718 129.487 408.296C130.083 408.487 130.687 408.662 131.305 408.82L131.666 408.914C132.796 409.191 133.943 409.412 135.135 409.585C135.141 409.586 135.149 409.58 135.155 409.581C137.125 409.866 139.181 410.027 141.264 410.039C144.188 410.057 147.19 409.817 150.169 409.329C162.084 407.38 173.655 401.532 178.594 393.031C179.476 391.512 180.143 389.904 180.567 388.223C180.652 387.887 180.732 387.554 180.797 387.211C178.438 382.152 176.381 377.755 174.498 373.659C168.15 359.842 163.938 349.925 158.202 333.495C154.026 319.041 153.115 311.033 150.43 294.422C149.99 291.699 148.063 290.883 145.299 291.469L145.3 291.469Z" fill="#2A0000" fill-opacity="0.38039"/>
<path fill-rule="evenodd" clip-rule="evenodd" d="M310.809 286.638C312.059 291.911 313.111 297.186 314.072 303.939C315.573 321.251 315.788 331.986 315.647 347.124C315.628 349.158 315.601 351.222 315.571 353.444C315.532 356.233 315.489 358.804 315.442 362C315.642 362.291 315.854 362.566 316.071 362.844C317.156 364.231 318.433 365.459 319.873 366.522C320.164 366.738 320.471 366.945 320.776 367.147C321.072 367.345 321.363 367.548 321.671 367.733C321.675 367.735 321.687 367.727 321.691 367.729C321.999 367.914 322.299 368.094 322.618 368.267C322.946 368.445 323.284 368.604 323.623 368.769C323.958 368.932 324.28 369.1 324.624 369.251C324.629 369.253 324.639 369.245 324.645 369.247C324.984 369.395 325.329 369.545 325.678 369.681C326.303 369.927 326.942 370.146 327.595 370.353C328.914 360.484 328.73 347.446 326.703 333.339C323.675 312.252 317.372 294.527 310.809 286.638L310.809 286.638Z" fill="#290000" fill-opacity="0.1451"/>
<path opacity="0.21311" d="M205.319 29.179C212.953 39.6454 218.616 45.7235 215.437 71.3809C213.007 44.6872 176.79 13.6155 182.389 13.7921C188.272 10.6149 197.336 18.235 205.32 29.181L205.319 29.179Z" fill="white"/>
<path fill-rule="evenodd" clip-rule="evenodd" d="M190.178 129.753C162.395 137.115 144.572 161.889 149.92 186.789C155.271 211.707 181.882 227.715 210.461 223.921C184.004 223.776 161.059 208.374 156.16 185.557C151.266 162.758 165.969 139.92 190.18 129.751L190.178 129.753Z" fill="#2B2B2B"/>
<path opacity="0.21311" d="M334.275 274.397C338.615 279.879 340.429 285.578 338.326 287.126C336.223 288.673 331.001 285.483 326.661 280C322.321 274.518 320.507 268.819 322.61 267.272C324.713 265.724 329.935 268.914 334.275 274.397Z" fill="white"/>
<path opacity="0.21311" d="M246.674 315.186C248.337 324.543 246.664 332.741 242.937 333.495C239.211 334.25 234.842 327.277 233.178 317.919C231.515 308.562 233.188 300.365 236.914 299.61C240.641 298.855 245.01 305.828 246.674 315.186Z" fill="white"/>
</g>
<defs>
<clipPath id="clip0">
<rect width="445" height="546" fill="white"/>
</clipPath>
</defs>
</svg>
